<svg id="splitsvg" xmlns="http://www.w3.org/2000/svg" xmlns:xlink="http://www.w3.org/1999/xlink" version="1.1" width="1380" height="100"><g id="svgg"><path id="path0" d="M24.883 12.110 C 24.832 12.243,24.684 12.312,24.553 12.261 C 24.404 12.204,24.360 12.241,24.434 12.361 C 24.616 12.655,24.656 13.347,24.485 13.241 C 24.402 13.189,24.333 13.218,24.333 13.305 C 24.333 13.598,23.003 14.000,22.037 14.000 C 21.020 14.000,20.322 14.413,20.087 15.156 C 20.018 15.372,19.767 15.531,19.366 15.612 C 18.580 15.769,18.664 15.745,18.090 15.981 C 17.819 16.093,17.395 16.411,17.148 16.688 C 16.879 16.989,16.509 17.205,16.225 17.228 C 15.614 17.277,15.265 17.489,15.016 17.963 C 14.906 18.172,14.760 18.307,14.690 18.264 C 14.620 18.221,14.362 18.425,14.117 18.718 C 13.872 19.011,13.514 19.438,13.323 19.667 C 13.131 19.896,13.029 19.971,13.096 19.833 C 13.162 19.696,12.943 19.842,12.608 20.158 C 12.274 20.474,12.000 20.830,12.000 20.949 C 12.000 21.069,11.921 21.167,11.823 21.167 C 11.726 21.167,11.693 21.242,11.750 21.333 C 11.807 21.425,11.774 21.500,11.677 21.500 C 11.579 21.500,11.512 21.556,11.527 21.625 C 11.542 21.694,11.467 21.961,11.360 22.219 C 11.254 22.477,11.167 22.747,11.167 22.819 C 11.167 22.891,10.866 23.085,10.499 23.250 C 9.594 23.659,9.484 23.829,9.378 24.993 C 9.293 25.933,9.241 26.036,8.560 26.593 C 7.942 27.100,7.833 27.281,7.832 27.803 C 7.831 28.753,7.523 29.643,7.121 29.858 C 6.436 30.224,6.352 30.395,6.586 30.949 C 6.704 31.230,6.883 31.511,6.984 31.573 C 7.258 31.743,7.205 32.071,6.834 32.499 C 6.309 33.105,6.169 33.920,6.168 36.380 C 6.167 38.010,6.096 38.846,5.925 39.257 C 5.713 39.763,5.713 39.922,5.925 40.522 C 6.272 41.507,6.265 46.225,5.914 47.063 C 5.689 47.602,5.689 47.731,5.914 48.270 C 6.247 49.066,6.258 55.597,5.928 56.500 C 5.754 56.979,5.756 57.199,5.941 57.729 C 6.283 58.709,6.262 66.565,5.914 67.396 C 5.689 67.935,5.689 68.065,5.914 68.604 C 6.103 69.056,6.167 69.865,6.167 71.826 L 6.167 74.444 6.583 74.667 C 6.812 74.789,7.000 74.938,7.000 74.997 C 7.000 75.056,8.706 75.117,10.792 75.131 C 14.571 75.158,15.455 75.071,17.000 74.520 C 17.412 74.373,17.812 74.273,17.887 74.297 C 17.963 74.322,17.982 74.273,17.930 74.188 C 17.878 74.104,17.943 73.994,18.074 73.943 C 18.697 73.704,18.678 71.895,18.048 71.388 C 17.838 71.219,17.855 71.124,18.169 70.699 C 18.649 70.050,18.647 69.114,18.164 68.460 C 17.922 68.134,17.856 67.922,17.974 67.849 C 18.660 67.425,18.710 65.859,18.060 65.141 C 17.805 64.859,17.802 64.808,18.037 64.622 C 18.638 64.146,19.003 56.539,18.596 52.970 C 18.514 52.255,18.549 52.155,19.016 51.762 L 19.526 51.333 24.309 51.333 C 29.059 51.333,29.095 51.336,29.413 51.707 C 29.790 52.148,29.755 51.030,29.803 64.250 C 29.822 69.750,29.899 74.346,29.973 74.462 C 30.232 74.869,32.114 75.044,36.612 75.079 C 41.489 75.117,42.068 75.037,42.251 74.302 C 42.333 73.968,42.257 50.170,42.171 49.500 C 42.122 49.120,42.233 48.761,42.548 48.281 C 42.720 48.019,42.833 47.519,42.833 47.026 C 42.833 46.476,42.922 46.134,43.102 45.984 C 43.250 45.862,43.560 45.349,43.790 44.844 C 44.021 44.339,44.407 43.730,44.647 43.490 C 44.887 43.251,45.851 42.259,46.788 41.287 C 48.554 39.455,49.080 39.103,50.310 38.927 C 50.709 38.870,51.342 38.676,51.717 38.495 C 52.247 38.239,52.429 38.212,52.543 38.375 C 52.894 38.875,53.154 39.672,53.200 40.391 C 53.227 40.818,53.306 41.166,53.375 41.167 C 53.592 41.167,53.431 41.553,53.049 41.951 C 52.847 42.161,52.615 42.333,52.533 42.333 C 52.174 42.333,51.863 42.947,51.899 43.583 C 51.920 43.950,51.839 44.813,51.719 45.500 C 51.143 48.810,51.575 57.337,52.368 58.291 C 52.463 58.406,52.491 58.500,52.431 58.500 C 52.370 58.500,52.470 58.661,52.654 58.858 C 52.837 59.054,53.037 59.561,53.098 59.983 C 53.332 61.598,53.557 62.169,54.002 62.286 C 54.184 62.333,54.333 62.476,54.333 62.603 C 54.333 62.730,54.393 62.833,54.465 62.833 C 54.538 62.833,54.684 63.156,54.789 63.550 C 54.896 63.948,55.244 64.546,55.574 64.895 C 55.900 65.241,56.167 65.631,56.167 65.762 C 56.167 65.893,56.240 66.000,56.330 66.000 C 56.420 66.000,56.541 66.188,56.598 66.417 C 56.656 66.646,56.792 66.833,56.902 66.833 C 57.157 66.833,58.167 67.869,58.167 68.131 C 58.167 68.240,58.420 68.435,58.730 68.564 C 59.039 68.693,59.344 68.882,59.406 68.983 C 59.469 69.084,59.649 69.167,59.807 69.167 C 59.965 69.167,60.230 69.395,60.394 69.674 C 60.580 69.988,60.877 70.217,61.178 70.277 C 61.686 70.379,62.236 70.813,62.703 71.482 C 62.922 71.796,63.169 71.896,63.866 71.952 C 64.865 72.032,65.500 72.286,65.500 72.605 C 65.500 73.151,66.171 73.457,67.542 73.537 C 68.355 73.584,68.925 73.693,68.964 73.808 C 68.999 73.913,69.131 74.000,69.258 74.000 C 69.385 74.000,69.568 74.149,69.666 74.331 C 69.763 74.514,70.028 74.709,70.255 74.766 C 70.481 74.823,70.667 74.918,70.667 74.976 C 70.667 75.251,93.068 75.080,93.667 74.801 C 94.470 74.427,94.519 74.350,94.231 73.912 C 94.023 73.593,93.983 72.789,93.994 69.161 C 94.003 66.652,93.942 64.714,93.852 64.605 C 93.765 64.501,93.663 64.191,93.624 63.916 C 93.466 62.804,93.066 62.615,92.064 63.178 C 91.640 63.416,91.402 63.460,91.181 63.341 C 91.014 63.251,90.840 63.215,90.796 63.260 C 90.751 63.305,90.619 63.227,90.503 63.087 C 90.250 62.782,82.895 62.695,83.083 63.000 C 83.140 63.092,83.126 63.172,83.052 63.179 C 82.694 63.213,82.294 63.317,82.214 63.397 C 82.165 63.446,81.838 63.339,81.486 63.160 C 80.679 62.748,80.326 62.750,79.580 63.168 C 79.122 63.426,78.909 63.463,78.659 63.329 C 78.480 63.233,78.333 63.207,78.333 63.270 C 78.333 63.333,78.202 63.268,78.042 63.126 C 77.807 62.917,77.144 62.852,74.667 62.792 C 71.431 62.713,70.384 62.474,70.106 61.748 C 69.986 61.436,69.013 61.000,68.437 61.000 C 68.176 61.000,67.877 60.806,67.604 60.458 C 67.073 59.782,66.885 59.594,66.208 59.062 C 65.882 58.806,65.667 58.487,65.667 58.259 C 65.667 58.051,65.456 57.702,65.199 57.483 C 64.558 56.935,64.040 56.159,63.745 55.303 C 63.440 54.417,63.188 53.887,62.786 53.292 C 62.616 53.040,62.539 52.832,62.614 52.831 C 62.689 52.829,62.648 52.764,62.523 52.685 C 62.340 52.569,62.332 52.376,62.481 51.682 C 62.610 51.079,62.614 50.594,62.495 50.059 C 62.275 49.081,62.575 47.432,63.053 46.987 C 63.568 46.507,63.998 45.788,63.999 45.405 C 64.000 44.932,64.484 44.027,65.084 43.373 C 66.422 41.915,69.214 39.175,69.309 39.227 C 69.368 39.260,69.767 39.091,70.196 38.851 C 72.551 37.538,71.973 37.660,75.832 37.659 C 79.499 37.659,80.071 37.761,80.870 38.560 C 81.001 38.691,81.458 38.958,81.887 39.153 C 82.316 39.349,82.667 39.607,82.667 39.729 C 82.667 40.062,83.251 40.667,83.573 40.667 C 83.929 40.667,85.999 42.650,86.003 42.995 C 86.006 43.280,86.700 44.000,86.972 44.000 C 87.245 44.000,87.316 44.205,87.521 45.582 C 87.654 46.478,87.826 47.000,88.088 47.305 C 88.445 47.719,88.449 47.755,88.172 47.996 C 88.011 48.136,87.725 48.587,87.536 49.000 C 86.650 50.934,80.783 50.630,79.937 48.607 C 79.745 48.146,79.103 47.398,78.315 46.716 C 77.920 46.375,77.683 46.039,77.773 45.950 C 77.854 45.868,77.446 45.692,77.083 45.652 C 76.992 45.642,76.789 45.566,76.634 45.483 C 76.248 45.276,73.388 45.250,73.127 45.451 C 73.011 45.540,72.505 45.632,72.001 45.655 C 71.127 45.694,70.659 45.820,70.717 46.000 C 70.770 46.163,70.243 46.760,69.795 47.046 C 68.878 47.632,68.749 48.143,68.758 51.167 C 68.766 54.162,68.847 54.493,69.669 54.918 C 69.940 55.058,70.208 55.356,70.264 55.581 C 70.321 55.805,70.415 55.978,70.475 55.964 C 70.582 55.940,71.478 56.315,72.389 56.766 C 72.648 56.895,73.267 57.000,73.764 57.000 C 74.260 57.000,74.667 57.063,74.667 57.140 C 74.667 57.346,75.354 57.610,75.833 57.588 C 76.395 57.563,77.000 57.344,77.000 57.166 C 77.000 56.904,85.493 56.954,85.594 57.217 C 85.693 57.477,85.947 57.531,86.990 57.520 C 87.436 57.515,87.781 57.420,87.858 57.283 C 88.012 57.009,88.643 57.026,88.818 57.309 C 89.063 57.706,90.754 57.622,91.089 57.197 C 91.287 56.946,91.669 56.987,91.916 57.285 C 92.304 57.753,94.167 57.638,94.167 57.146 C 94.167 57.066,94.354 57.000,94.583 57.000 C 94.813 57.000,95.000 57.072,95.000 57.160 C 95.000 57.248,95.292 57.399,95.649 57.495 C 96.407 57.699,96.787 58.199,96.983 59.248 C 97.124 60.003,97.560 60.833,97.815 60.833 C 97.893 60.833,98.145 61.265,98.375 61.792 C 98.605 62.319,99.027 62.993,99.313 63.290 C 99.599 63.587,99.833 63.951,99.833 64.098 C 99.833 64.587,100.344 65.451,100.738 65.631 C 100.952 65.728,101.338 66.102,101.597 66.462 C 101.855 66.821,102.277 67.236,102.535 67.384 C 102.792 67.532,103.075 67.842,103.163 68.073 C 103.259 68.327,103.612 68.629,104.053 68.837 C 104.455 69.026,104.882 69.364,105.002 69.587 C 105.122 69.811,105.376 70.044,105.566 70.104 C 106.161 70.293,107.167 71.033,107.167 71.282 C 107.167 71.413,107.233 71.479,107.314 71.428 C 107.396 71.378,107.548 71.441,107.653 71.567 C 107.758 71.694,108.170 71.846,108.569 71.906 C 108.967 71.966,109.724 72.274,110.250 72.591 C 110.777 72.907,111.410 73.167,111.659 73.167 C 111.908 73.167,112.164 73.220,112.229 73.284 C 112.293 73.349,112.548 73.429,112.796 73.462 C 113.624 73.573,114.262 73.987,114.464 74.545 L 114.658 75.083 126.454 75.083 C 140.368 75.083,139.117 75.279,139.025 73.122 C 138.967 71.749,138.959 71.297,138.959 69.583 C 138.959 69.079,138.959 68.385,138.959 68.042 C 138.959 67.698,138.993 66.823,139.036 66.098 C 139.124 64.604,138.954 63.430,138.599 63.075 C 138.328 62.805,137.589 62.739,137.750 63.000 C 137.807 63.092,137.792 63.172,137.718 63.179 C 137.361 63.213,136.961 63.317,136.881 63.397 C 136.832 63.446,136.504 63.339,136.153 63.160 C 135.355 62.753,135.150 62.753,134.305 63.161 C 133.828 63.392,133.539 63.443,133.335 63.334 C 133.175 63.248,133.007 63.215,132.962 63.260 C 132.918 63.305,132.786 63.227,132.670 63.087 C 132.376 62.733,130.379 62.737,129.870 63.093 C 129.667 63.235,129.500 63.301,129.500 63.239 C 129.500 63.177,129.393 63.214,129.263 63.323 C 129.077 63.477,128.862 63.446,128.272 63.177 C 127.343 62.753,127.330 62.754,126.505 63.183 L 125.833 63.534 125.146 63.175 C 124.447 62.811,121.888 62.684,122.098 63.024 C 122.147 63.103,122.047 63.167,121.877 63.167 C 121.706 63.167,121.486 63.248,121.386 63.347 C 121.257 63.476,121.014 63.429,120.526 63.180 C 119.978 62.900,119.538 62.833,118.255 62.833 C 116.471 62.833,115.526 62.517,114.703 61.646 C 114.455 61.382,114.190 61.167,114.115 61.167 C 113.733 61.167,112.333 60.427,112.256 60.185 C 112.207 60.031,111.923 59.763,111.625 59.589 C 111.115 59.291,110.587 58.723,110.585 58.469 C 110.584 58.406,110.350 58.143,110.065 57.885 C 109.749 57.599,109.504 57.181,109.436 56.813 C 109.372 56.461,109.136 56.044,108.870 55.813 C 107.504 54.628,107.271 45.167,108.607 45.167 C 108.919 45.167,109.124 44.581,109.102 43.752 C 109.082 43.025,109.607 42.333,110.179 42.333 C 110.485 42.333,111.167 41.599,111.167 41.269 C 111.167 41.018,111.926 40.149,112.043 40.266 C 112.094 40.317,112.182 40.214,112.238 40.037 C 112.359 39.656,113.490 39.068,114.388 38.919 C 114.805 38.850,115.217 38.616,115.582 38.240 C 116.210 37.594,115.796 37.641,120.657 37.667 L 123.397 37.681 124.345 38.257 C 124.867 38.574,125.416 38.833,125.565 38.833 C 126.000 38.833,127.490 39.704,127.589 40.017 C 127.686 40.322,127.833 40.406,128.998 40.819 C 129.572 41.022,129.785 41.199,129.912 41.583 C 130.004 41.858,130.127 42.121,130.185 42.167 C 130.540 42.447,131.202 44.100,131.244 44.810 C 131.301 45.782,131.410 46.000,131.839 46.000 C 132.946 46.000,133.063 48.574,131.993 49.365 C 131.531 49.706,131.302 49.798,130.664 49.894 C 130.525 49.915,130.310 49.995,130.186 50.071 C 129.859 50.273,127.828 50.228,127.615 50.015 C 127.515 49.915,126.973 49.833,126.409 49.833 C 125.272 49.833,124.255 49.074,123.363 47.559 C 123.151 47.198,122.819 46.831,122.627 46.743 C 122.435 46.655,122.196 46.437,122.097 46.258 C 121.603 45.368,121.160 45.242,119.675 45.570 C 119.450 45.620,119.221 45.587,119.165 45.498 C 119.110 45.408,118.503 45.287,117.818 45.229 C 115.933 45.070,114.907 45.705,114.100 47.530 C 113.882 48.022,113.508 48.572,113.269 48.752 C 112.886 49.040,112.832 49.200,112.826 50.081 C 112.822 50.632,112.754 51.417,112.676 51.825 C 112.536 52.550,112.548 52.581,113.239 53.241 C 113.627 53.613,114.081 54.235,114.248 54.625 C 114.414 55.015,114.652 55.333,114.775 55.333 C 114.899 55.333,115.000 55.437,115.000 55.563 C 115.000 55.817,115.439 56.018,116.872 56.420 C 117.397 56.568,117.870 56.759,117.923 56.844 C 117.976 56.930,118.465 57.000,119.010 57.000 C 119.554 57.000,120.000 57.063,120.000 57.140 C 120.000 57.649,122.087 57.735,122.279 57.233 C 122.407 56.900,129.150 56.917,129.404 57.251 C 129.782 57.748,131.667 57.661,131.667 57.146 C 131.667 57.066,131.854 57.000,132.083 57.000 C 132.313 57.000,132.500 57.063,132.500 57.140 C 132.500 57.784,134.494 57.705,134.928 57.043 L 135.200 56.627 135.475 57.022 C 135.892 57.621,137.566 57.804,137.858 57.283 C 138.012 57.009,138.643 57.026,138.818 57.309 C 139.060 57.700,140.752 57.623,141.083 57.206 C 141.175 57.090,141.614 56.967,142.060 56.932 C 142.759 56.877,142.976 56.764,143.653 56.097 C 144.084 55.673,144.488 55.365,144.552 55.413 C 144.615 55.461,144.632 55.452,144.589 55.394 C 144.546 55.336,144.659 55.101,144.840 54.871 C 145.172 54.449,145.182 54.335,145.206 50.917 C 145.212 50.017,145.058 47.049,144.988 46.708 C 144.964 46.594,144.844 46.500,144.722 46.500 C 144.600 46.500,144.517 46.444,144.537 46.375 C 144.557 46.306,144.449 46.063,144.297 45.833 C 144.145 45.604,143.989 45.229,143.952 45.000 C 143.915 44.771,143.841 44.471,143.789 44.333 C 143.564 43.748,143.508 42.846,143.648 42.092 C 143.789 41.338,143.770 41.258,143.358 40.881 C 143.115 40.658,142.785 40.356,142.625 40.209 C 142.462 40.059,142.325 39.679,142.314 39.346 C 142.304 39.018,142.277 38.675,142.256 38.583 C 142.235 38.492,142.206 38.297,142.192 38.152 C 142.178 38.006,141.985 37.804,141.763 37.703 C 141.185 37.440,140.667 36.964,140.667 36.696 C 140.667 36.248,140.139 35.365,139.822 35.282 C 139.645 35.236,139.500 35.082,139.500 34.940 C 139.500 34.537,138.714 33.470,137.995 32.898 C 137.637 32.612,137.391 32.331,137.450 32.273 C 137.508 32.214,137.468 32.167,137.361 32.167 C 137.254 32.167,137.165 32.073,137.162 31.958 C 137.160 31.844,136.858 31.611,136.490 31.442 C 136.123 31.273,135.547 30.875,135.211 30.557 C 134.875 30.240,134.277 29.895,133.883 29.789 C 133.489 29.684,133.167 29.538,133.167 29.465 C 133.167 29.393,133.054 29.333,132.917 29.333 C 132.779 29.333,132.667 29.230,132.667 29.104 C 132.667 28.826,132.313 28.513,131.892 28.418 C 130.382 28.078,129.903 27.886,129.761 27.563 C 129.404 26.748,128.475 26.579,124.048 26.522 C 122.298 26.499,121.500 26.141,121.500 25.377 C 121.500 24.966,121.048 25.177,120.520 25.833 C 119.918 26.582,119.519 26.663,118.595 26.222 C 118.056 25.965,117.964 25.964,117.381 26.213 C 116.975 26.386,116.068 26.509,114.833 26.558 C 113.779 26.600,112.729 26.679,112.500 26.732 C 111.766 26.903,111.167 27.202,111.167 27.397 C 111.167 27.740,110.462 28.035,109.431 28.123 C 108.409 28.209,107.667 28.624,107.667 29.108 C 107.667 29.395,106.904 29.776,106.119 29.881 C 105.710 29.935,105.333 30.133,105.050 30.441 C 104.810 30.703,104.269 31.122,103.848 31.372 C 103.428 31.623,103.149 31.829,103.229 31.830 C 103.309 31.832,103.281 31.946,103.167 32.083 C 103.053 32.221,103.025 32.334,103.105 32.336 C 103.185 32.337,102.972 32.618,102.633 32.961 C 102.293 33.303,101.731 33.872,101.383 34.225 C 101.035 34.577,100.631 34.971,100.486 35.100 C 100.341 35.228,100.222 35.444,100.222 35.580 C 100.222 36.444,99.757 37.193,99.012 37.531 C 98.593 37.721,98.140 38.010,98.006 38.173 C 97.663 38.590,95.813 36.777,95.494 35.712 C 95.266 34.952,94.788 34.333,94.429 34.333 C 94.114 34.333,92.333 32.577,92.333 32.267 C 92.333 31.939,91.721 31.366,91.083 31.096 C 90.808 30.980,90.480 30.692,90.355 30.457 C 90.212 30.190,89.931 29.993,89.605 29.931 C 89.318 29.876,88.896 29.797,88.667 29.754 C 88.438 29.711,87.961 29.336,87.608 28.921 C 87.063 28.281,86.873 28.167,86.357 28.167 C 85.401 28.167,84.652 27.884,84.182 27.347 C 83.676 26.767,83.283 26.683,80.333 26.521 C 79.188 26.458,78.086 26.315,77.886 26.203 C 77.669 26.082,76.869 26.000,75.910 26.000 C 74.433 26.000,74.257 25.965,73.802 25.582 C 73.529 25.352,73.242 25.204,73.164 25.252 C 73.086 25.300,72.978 25.266,72.923 25.177 C 72.795 24.970,72.333 25.140,72.333 25.395 C 72.333 25.970,71.488 26.500,70.535 26.522 C 68.238 26.574,67.728 26.620,67.375 26.810 C 67.169 26.921,67.000 26.962,67.000 26.902 C 67.000 26.842,66.888 26.885,66.752 26.998 C 66.615 27.112,66.541 27.266,66.588 27.340 C 66.634 27.415,66.520 27.524,66.336 27.583 C 66.151 27.641,66.000 27.749,66.000 27.823 C 66.000 27.897,65.692 28.007,65.316 28.067 C 64.536 28.191,63.645 28.606,63.453 28.934 C 63.381 29.056,63.044 29.277,62.703 29.425 C 62.362 29.573,61.840 29.800,61.542 29.928 C 61.203 30.074,61.000 30.280,61.000 30.477 C 61.000 30.694,60.702 30.941,60.042 31.271 C 59.515 31.535,59.026 31.839,58.956 31.948 C 58.744 32.278,58.114 32.041,57.562 31.424 C 57.052 30.855,57.039 30.800,57.012 29.086 L 56.984 27.330 56.284 26.669 C 55.503 25.932,54.302 25.752,53.367 26.231 C 53.062 26.387,52.026 26.490,50.167 26.549 C 47.387 26.637,46.333 26.836,46.333 27.272 C 46.333 27.403,46.202 27.560,46.042 27.622 C 45.881 27.683,45.571 27.899,45.352 28.101 C 45.133 28.303,44.628 28.518,44.231 28.578 C 43.833 28.637,43.463 28.758,43.409 28.846 C 43.355 28.934,43.222 28.955,43.113 28.893 C 43.005 28.831,42.970 28.839,43.035 28.911 C 43.162 29.052,41.880 29.992,41.554 29.997 C 41.446 29.999,41.215 30.181,41.042 30.401 C 40.868 30.622,40.434 30.941,40.077 31.110 C 39.720 31.279,39.254 31.676,39.041 31.993 C 38.828 32.309,38.458 32.697,38.219 32.853 C 37.980 33.010,37.644 33.362,37.471 33.634 C 37.298 33.907,36.934 34.223,36.662 34.335 C 36.389 34.448,36.167 34.618,36.167 34.712 C 36.167 34.806,35.754 35.283,35.250 35.771 C 34.362 36.632,34.204 36.997,34.316 37.938 C 34.329 38.042,34.094 38.243,33.794 38.385 C 33.495 38.528,33.066 38.816,32.842 39.026 C 32.469 39.375,32.314 39.402,31.009 39.341 C 29.082 39.250,22.407 39.252,20.724 39.343 C 19.312 39.420,18.549 39.045,18.479 38.241 C 18.468 38.109,18.450 37.869,18.441 37.708 C 18.431 37.548,18.294 37.275,18.135 37.101 C 17.862 36.801,17.863 36.765,18.165 36.381 C 18.473 35.989,18.555 35.609,18.748 33.667 C 18.928 31.865,19.006 31.647,19.540 31.461 C 19.868 31.347,20.118 31.091,20.279 30.705 C 20.413 30.385,20.791 29.870,21.118 29.561 C 21.445 29.253,21.660 29.000,21.595 29.000 C 21.530 29.000,21.638 28.774,21.835 28.498 C 22.031 28.222,22.254 28.035,22.330 28.082 C 22.406 28.129,22.779 27.797,23.158 27.344 C 23.767 26.616,24.782 26.016,25.208 26.133 C 25.277 26.151,25.333 26.087,25.333 25.990 C 25.333 25.893,25.408 25.860,25.500 25.917 C 25.592 25.973,25.667 25.952,25.667 25.868 C 25.667 25.469,27.936 24.836,29.583 24.776 C 31.002 24.724,32.296 24.162,32.637 23.449 C 32.975 22.743,32.913 12.873,32.568 12.515 C 32.532 12.478,32.596 12.332,32.710 12.192 C 32.855 12.013,32.858 11.971,32.720 12.054 C 32.612 12.119,32.474 12.093,32.414 11.996 C 32.229 11.696,25.000 11.805,24.883 12.110 M334.588 26.201 C 333.801 26.657,331.973 26.904,330.869 26.703 C 330.391 26.617,330.000 26.602,330.000 26.671 C 330.000 26.741,329.813 26.844,329.583 26.902 C 329.354 26.959,329.167 27.112,329.167 27.242 C 329.167 27.372,329.017 27.525,328.833 27.583 C 328.650 27.642,328.500 27.749,328.500 27.823 C 328.500 27.897,328.192 28.007,327.816 28.067 C 326.971 28.202,326.381 28.500,325.703 29.133 C 325.416 29.401,324.934 29.720,324.632 29.841 C 324.330 29.963,323.971 30.206,323.833 30.381 C 323.216 31.168,321.573 32.621,321.150 32.755 C 320.671 32.907,320.410 33.163,320.265 33.621 C 320.203 33.816,319.906 34.121,319.605 34.298 C 319.275 34.493,318.914 34.927,318.695 35.394 C 318.495 35.819,318.276 36.169,318.207 36.172 C 317.909 36.185,317.478 36.667,317.409 37.066 C 317.367 37.305,317.299 37.697,317.257 37.937 C 316.967 39.604,314.459 39.419,313.922 37.691 C 313.855 37.475,313.547 37.031,313.238 36.703 C 312.929 36.376,312.567 35.877,312.433 35.596 C 312.298 35.314,311.921 34.825,311.594 34.509 C 311.267 34.193,311.000 33.837,311.000 33.717 C 311.000 33.444,310.540 32.986,309.966 32.687 C 309.724 32.561,309.483 32.289,309.432 32.084 C 309.380 31.879,308.999 31.433,308.586 31.094 C 308.172 30.755,307.833 30.372,307.833 30.242 C 307.833 30.113,307.533 29.854,307.167 29.667 C 306.800 29.480,306.500 29.227,306.500 29.105 C 306.500 28.785,305.977 28.233,305.542 28.096 C 305.335 28.031,305.167 27.910,305.167 27.828 C 305.167 26.847,303.296 26.253,301.574 26.686 C 301.028 26.824,300.639 26.824,300.092 26.686 C 299.563 26.553,299.118 26.550,298.539 26.674 C 297.975 26.795,297.489 26.795,296.952 26.675 C 296.416 26.554,295.930 26.554,295.369 26.675 C 294.807 26.795,294.322 26.795,293.780 26.673 C 293.236 26.551,292.764 26.551,292.220 26.673 C 291.677 26.795,291.194 26.795,290.629 26.674 C 288.954 26.315,288.611 27.587,290.187 28.310 C 290.634 28.515,291.000 28.779,291.000 28.896 C 291.000 29.013,291.260 29.326,291.578 29.591 C 291.896 29.856,292.201 30.279,292.257 30.530 C 292.317 30.805,292.582 31.127,292.920 31.335 C 293.230 31.527,293.531 31.834,293.589 32.017 C 293.647 32.201,294.001 32.574,294.376 32.845 C 294.750 33.116,295.194 33.564,295.362 33.840 C 295.529 34.116,295.839 34.407,296.049 34.487 C 296.533 34.671,296.776 34.965,296.921 35.540 C 296.983 35.790,297.239 36.202,297.489 36.456 C 297.740 36.709,298.121 37.217,298.336 37.583 C 298.732 38.255,301.045 40.667,301.294 40.667 C 301.368 40.667,301.568 40.904,301.740 41.194 C 301.911 41.485,302.303 41.942,302.609 42.212 C 302.916 42.481,303.167 42.802,303.167 42.925 C 303.167 43.202,303.888 44.000,304.138 44.000 C 304.449 44.000,304.621 44.530,304.736 45.833 C 304.897 47.674,305.006 48.193,305.354 48.770 C 305.678 49.308,305.803 51.000,305.518 51.000 C 305.202 51.000,304.865 52.327,304.749 54.030 C 304.635 55.710,304.600 55.838,304.125 56.324 C 303.849 56.607,303.463 57.135,303.269 57.497 C 302.918 58.153,300.782 60.500,300.537 60.500 C 300.466 60.500,300.279 60.650,300.122 60.833 C 299.965 61.017,299.690 61.167,299.511 61.167 C 299.333 61.167,299.136 61.248,299.074 61.348 C 299.013 61.448,298.821 61.492,298.648 61.447 C 298.475 61.402,298.333 61.445,298.333 61.543 C 298.333 61.642,298.288 61.677,298.232 61.621 C 298.177 61.566,297.977 61.664,297.788 61.839 C 296.903 62.664,293.173 63.015,289.667 62.603 C 288.109 62.420,287.904 62.340,287.104 61.599 C 286.749 61.269,286.355 61.000,286.229 61.000 C 286.103 61.000,286.000 60.925,286.000 60.833 C 286.000 60.742,285.897 60.667,285.771 60.667 C 285.499 60.667,283.274 58.428,283.196 58.076 C 283.166 57.943,283.082 57.833,283.008 57.833 C 282.934 57.833,282.773 57.591,282.650 57.294 C 282.416 56.729,281.719 56.014,281.393 56.005 C 281.088 55.997,281.008 55.578,281.144 54.713 C 281.301 53.724,281.128 53.022,280.629 52.617 C 280.369 52.405,280.316 52.282,280.459 52.223 C 280.575 52.177,280.619 52.058,280.559 51.960 C 280.493 51.854,280.527 51.831,280.644 51.903 C 280.916 52.071,281.350 51.010,281.157 50.649 C 281.077 50.500,281.052 50.337,281.101 50.288 C 281.236 50.153,280.782 49.500,280.553 49.500 C 280.443 49.500,280.299 49.413,280.234 49.308 C 280.169 49.202,280.183 49.157,280.266 49.208 C 280.355 49.264,280.417 44.830,280.417 38.331 C 280.417 32.298,280.379 27.367,280.333 27.374 C 280.287 27.381,280.025 27.294,279.750 27.181 C 278.466 26.652,277.434 26.487,276.619 26.681 C 276.030 26.820,275.628 26.821,275.086 26.685 C 274.563 26.553,274.117 26.550,273.539 26.674 C 272.973 26.795,272.490 26.795,271.947 26.673 C 269.399 26.102,268.081 28.184,268.938 31.427 C 269.086 31.985,269.053 32.357,268.752 33.558 C 268.297 35.368,268.174 35.510,267.555 34.928 C 267.296 34.683,266.863 34.437,266.594 34.381 C 266.086 34.275,264.333 32.690,264.333 32.336 C 264.333 32.135,263.660 31.189,263.610 31.319 C 263.534 31.518,262.353 30.759,262.193 30.409 C 262.091 30.184,261.931 29.991,261.837 29.979 C 261.743 29.968,261.610 29.945,261.542 29.928 C 261.473 29.911,261.079 29.836,260.667 29.760 C 260.227 29.680,259.766 29.462,259.553 29.232 C 259.080 28.723,258.084 28.167,257.645 28.167 C 257.153 28.167,256.167 27.667,256.167 27.418 C 256.167 26.675,255.817 26.640,247.817 26.574 C 240.978 26.517,240.828 26.534,239.867 27.455 C 239.502 27.805,239.083 28.016,238.617 28.085 C 237.656 28.226,237.462 28.266,237.125 28.391 C 236.965 28.451,236.714 28.538,236.568 28.584 C 236.421 28.630,236.263 28.818,236.215 29.001 C 236.167 29.184,236.024 29.333,235.897 29.333 C 235.770 29.333,235.667 29.393,235.667 29.465 C 235.667 29.538,235.323 29.689,234.903 29.802 C 234.429 29.929,233.982 30.194,233.722 30.503 C 233.492 30.776,233.239 31.000,233.160 31.000 C 232.856 31.000,231.500 32.036,231.500 32.269 C 231.500 32.404,231.350 32.675,231.167 32.872 C 230.983 33.069,230.833 33.312,230.833 33.412 C 230.833 33.832,228.673 34.635,227.475 34.661 C 226.956 34.672,226.541 33.741,226.676 32.866 C 226.746 32.411,226.726 31.951,226.629 31.766 C 226.402 31.337,226.415 29.518,226.647 29.286 C 227.604 28.330,226.418 26.378,225.058 26.670 C 224.476 26.795,223.994 26.796,223.452 26.675 C 222.912 26.554,222.429 26.555,221.854 26.678 C 221.259 26.805,220.836 26.802,220.329 26.665 C 219.800 26.523,219.424 26.525,218.807 26.673 C 218.181 26.823,217.805 26.824,217.215 26.675 C 216.496 26.494,216.417 26.507,216.056 26.868 L 215.669 27.255 215.664 38.388 C 215.661 46.472,215.713 49.700,215.856 50.177 C 216.002 50.664,216.005 50.995,215.870 51.458 C 215.769 51.802,215.639 52.908,215.582 53.917 C 215.476 55.762,215.283 56.500,214.907 56.500 C 214.677 56.500,214.250 57.470,214.079 58.381 C 213.971 58.956,213.125 60.069,212.938 59.882 C 212.889 59.834,212.800 59.990,212.740 60.230 C 212.680 60.470,212.522 60.667,212.389 60.667 C 212.256 60.667,212.193 60.742,212.250 60.833 C 212.307 60.925,212.254 61.000,212.133 61.000 C 212.012 61.000,211.726 61.230,211.498 61.512 C 210.960 62.175,210.042 62.617,208.908 62.758 C 208.409 62.821,208.000 62.923,208.000 62.986 C 208.000 63.453,205.527 63.670,205.098 63.241 C 204.827 62.970,204.692 62.931,203.108 62.672 C 202.086 62.505,201.838 62.370,201.205 61.634 C 200.993 61.387,200.688 61.143,200.529 61.092 C 200.369 61.042,200.097 60.757,199.923 60.459 C 199.749 60.161,199.442 59.767,199.241 59.583 C 198.763 59.149,198.500 58.624,198.500 58.104 C 198.500 57.874,198.425 57.640,198.333 57.583 C 198.242 57.527,198.166 57.354,198.165 57.198 C 198.164 57.043,197.901 56.662,197.582 56.352 C 197.075 55.859,197.000 55.683,197.000 54.977 C 197.000 54.531,196.994 54.131,196.986 54.087 C 196.978 54.043,196.877 53.600,196.761 53.103 C 196.617 52.481,196.604 52.107,196.719 51.900 C 196.968 51.456,196.946 47.003,196.694 46.542 C 196.530 46.243,196.532 46.091,196.702 45.792 C 196.968 45.326,196.970 40.566,196.704 40.070 C 196.580 39.838,196.581 39.647,196.708 39.421 C 196.966 38.959,196.955 34.518,196.694 34.042 C 196.536 33.753,196.533 33.583,196.683 33.303 C 197.157 32.418,196.931 27.759,196.384 27.138 C 195.978 26.678,194.685 26.449,193.779 26.677 C 193.196 26.824,192.814 26.826,192.259 26.686 C 191.730 26.553,191.285 26.550,190.705 26.674 C 190.148 26.794,189.661 26.795,189.155 26.678 C 187.786 26.363,186.201 26.489,185.167 26.997 C 184.866 27.144,184.759 27.582,184.930 27.968 C 184.998 28.123,185.061 28.300,185.069 28.361 C 185.077 28.422,185.140 28.528,185.208 28.597 C 185.546 28.935,185.344 35.351,184.979 35.863 C 184.544 36.473,184.529 37.017,184.930 37.622 C 185.314 38.201,185.314 38.465,184.930 39.044 C 184.528 39.651,184.545 40.194,184.983 40.809 C 185.363 41.344,185.377 41.606,185.042 41.966 C 184.561 42.484,184.582 43.558,185.084 44.060 C 185.402 44.378,185.402 44.788,185.084 45.107 C 184.582 45.608,184.561 46.683,185.042 47.201 C 185.377 47.561,185.363 47.823,184.983 48.358 C 184.544 48.973,184.528 49.516,184.931 50.122 C 185.253 50.606,185.324 50.971,185.153 51.250 C 184.787 51.847,184.485 53.411,184.410 55.099 C 184.319 57.147,184.199 57.581,183.682 57.745 C 183.291 57.869,182.954 58.370,182.666 59.250 C 182.397 60.076,179.894 62.613,179.207 62.756 C 178.956 62.809,178.429 62.998,178.037 63.176 C 176.898 63.694,173.333 63.550,173.333 62.986 C 173.333 62.923,172.909 62.819,172.390 62.754 C 171.268 62.614,170.925 62.427,170.482 61.717 C 170.299 61.423,169.896 61.027,169.586 60.835 C 169.217 60.607,168.926 60.234,168.743 59.754 C 168.589 59.351,168.362 58.983,168.239 58.935 C 167.682 58.722,167.015 56.436,166.921 54.417 C 166.904 54.050,166.800 53.581,166.689 53.375 C 166.579 53.169,166.538 53.000,166.598 53.000 C 166.658 53.000,166.634 52.906,166.543 52.792 C 166.359 52.558,166.329 52.000,166.500 52.000 C 166.640 52.000,166.692 51.682,166.692 50.833 C 166.692 49.947,166.639 49.667,166.472 49.667 C 166.304 49.667,166.287 49.102,166.449 48.940 C 166.763 48.626,166.832 46.705,166.537 46.523 C 166.247 46.343,166.309 42.933,166.614 42.323 C 166.754 42.042,166.829 41.611,166.781 41.365 C 166.658 40.737,166.532 40.250,166.491 40.250 C 166.473 40.250,166.440 40.081,166.418 39.875 C 166.397 39.669,166.431 39.500,166.495 39.500 C 166.640 39.500,166.692 39.190,166.692 38.333 C 166.692 37.438,166.639 37.167,166.464 37.167 C 166.271 37.167,166.327 33.357,166.522 33.237 C 166.604 33.186,166.632 33.079,166.583 33.000 C 166.535 32.921,166.571 32.809,166.664 32.752 C 166.892 32.611,166.878 31.797,166.639 31.219 C 166.364 30.556,166.377 30.661,166.354 28.864 L 166.333 27.228 165.659 26.849 C 165.041 26.502,164.916 26.487,164.153 26.670 C 163.530 26.820,163.136 26.823,162.586 26.685 C 162.063 26.553,161.617 26.550,161.039 26.674 C 160.473 26.795,159.990 26.795,159.447 26.673 C 158.904 26.552,158.430 26.552,157.891 26.672 C 157.341 26.796,156.855 26.792,156.221 26.661 C 154.082 26.217,153.055 26.713,153.235 28.105 C 153.368 29.129,153.369 29.632,153.259 40.833 C 153.167 50.259,153.260 52.000,153.857 52.000 C 154.382 52.000,154.907 55.217,154.843 58.040 C 154.811 59.457,154.823 59.510,155.301 59.957 C 155.957 60.572,156.089 60.869,156.343 62.308 C 156.545 63.453,156.601 63.560,157.192 63.933 C 157.540 64.152,157.951 64.524,158.105 64.759 C 158.258 64.994,158.595 65.412,158.853 65.687 C 159.171 66.028,159.383 66.506,159.517 67.183 C 159.685 68.042,159.798 68.240,160.340 68.629 C 160.685 68.877,161.106 69.287,161.276 69.540 C 161.445 69.793,161.808 70.115,162.083 70.255 C 162.780 70.609,163.126 70.848,163.682 71.356 C 163.946 71.598,164.352 71.844,164.584 71.902 C 165.082 72.027,165.667 72.494,165.667 72.768 C 165.667 73.111,166.469 73.500,167.177 73.500 C 167.948 73.500,169.000 73.929,169.000 74.243 C 169.000 75.071,174.432 75.400,180.536 74.943 C 181.328 74.883,181.862 74.911,181.926 75.015 C 182.045 75.208,182.667 74.561,182.667 74.243 C 182.667 73.895,183.693 73.517,184.387 73.611 C 185.069 73.703,185.848 73.572,185.806 73.372 C 185.701 72.870,186.672 71.833,187.247 71.833 C 187.446 71.833,187.790 71.638,188.013 71.400 C 188.484 70.894,189.490 70.407,190.370 70.258 C 190.732 70.197,191.097 70.002,191.245 69.790 L 191.500 69.426 191.759 69.796 C 191.915 70.019,192.268 70.206,192.647 70.266 C 193.151 70.347,193.355 70.497,193.679 71.030 C 194.171 71.836,194.352 71.935,195.417 71.980 C 196.094 72.009,196.321 72.100,196.628 72.466 C 197.386 73.371,197.568 73.500,198.092 73.500 C 199.247 73.500,199.582 73.664,199.987 74.427 L 200.375 75.159 205.521 75.121 C 208.351 75.100,210.667 75.035,210.667 74.976 C 210.667 74.918,210.852 74.823,211.079 74.766 C 211.305 74.709,211.570 74.514,211.668 74.331 C 211.765 74.149,211.955 74.000,212.089 74.000 C 212.223 74.000,212.333 73.938,212.333 73.861 C 212.333 73.701,212.357 73.697,213.917 73.564 C 215.089 73.464,215.833 73.075,215.833 72.563 C 215.833 72.057,216.569 71.583,217.333 71.597 C 217.990 71.609,218.161 71.532,218.715 70.972 C 219.062 70.621,219.480 70.333,219.645 70.333 C 219.809 70.333,220.047 70.127,220.173 69.875 C 220.442 69.338,221.083 68.716,221.504 68.582 C 221.667 68.530,221.842 68.322,221.893 68.119 C 221.944 67.916,222.286 67.420,222.651 67.016 C 223.017 66.612,223.308 66.237,223.298 66.183 C 223.195 65.630,223.760 64.540,224.336 64.181 C 224.691 63.959,224.970 63.734,224.956 63.681 C 224.874 63.371,225.575 62.333,225.867 62.333 C 226.559 62.333,227.467 63.207,227.995 64.380 C 228.351 65.171,228.627 65.556,228.917 65.667 C 229.482 65.882,231.057 67.482,231.346 68.135 C 231.484 68.446,231.705 68.667,231.878 68.667 C 232.042 68.667,232.513 69.004,232.925 69.417 C 233.338 69.829,233.718 70.167,233.771 70.167 C 233.920 70.167,234.833 71.184,234.833 71.351 C 234.833 71.433,234.919 71.500,235.024 71.500 C 235.249 71.500,236.058 72.318,236.324 72.816 C 236.427 73.009,236.591 73.167,236.689 73.167 C 236.896 73.167,237.753 74.051,237.889 74.405 C 238.018 74.740,239.258 75.069,240.167 75.010 C 240.579 74.983,241.142 74.971,241.417 74.983 C 248.919 75.310,253.822 75.115,254.222 74.475 C 254.409 74.177,252.485 72.123,251.822 71.913 C 251.645 71.857,251.500 71.741,251.500 71.655 C 251.500 71.570,251.350 71.500,251.167 71.500 C 250.983 71.500,250.833 71.432,250.833 71.348 C 250.833 71.265,250.065 70.436,249.125 69.507 C 248.185 68.578,247.417 67.765,247.417 67.701 C 247.417 67.537,246.697 66.833,246.530 66.833 C 246.408 66.833,244.638 65.022,243.742 63.980 C 243.554 63.762,243.267 63.508,243.104 63.417 C 242.941 63.325,242.813 63.194,242.820 63.125 C 242.838 62.956,242.165 62.290,241.769 62.083 C 241.593 61.992,241.367 61.775,241.266 61.603 C 240.975 61.103,240.373 60.535,240.014 60.421 C 239.832 60.363,239.633 60.151,239.571 59.950 C 239.467 59.610,238.870 58.922,238.671 58.912 C 238.312 58.894,237.477 57.772,237.221 56.964 C 237.171 56.806,237.005 56.638,236.851 56.589 C 235.490 56.157,235.487 45.329,236.848 44.167 C 236.901 44.121,237.030 43.837,237.132 43.537 C 237.364 42.859,237.678 42.537,238.324 42.312 C 238.599 42.216,238.984 41.879,239.178 41.565 C 239.373 41.250,239.741 40.884,239.996 40.752 C 240.251 40.620,240.612 40.254,240.798 39.939 C 241.150 39.342,241.306 39.280,242.975 39.074 C 243.557 39.002,243.963 38.850,244.142 38.637 C 244.799 37.855,245.640 37.667,248.470 37.667 L 251.125 37.667 251.749 38.239 C 252.153 38.608,252.618 38.851,253.062 38.924 C 253.992 39.078,254.534 39.424,254.833 40.055 C 254.985 40.376,255.231 40.604,255.458 40.637 C 255.665 40.666,255.833 40.748,255.833 40.818 C 255.833 40.889,256.021 41.032,256.250 41.136 C 256.479 41.241,256.667 41.440,256.667 41.580 C 256.667 41.719,256.731 41.833,256.811 41.833 C 257.084 41.833,257.833 42.713,257.833 43.035 C 257.833 43.421,258.132 43.747,258.633 43.906 C 259.135 44.065,259.274 44.394,259.399 45.725 C 259.517 46.983,259.718 47.500,260.089 47.500 C 260.270 47.500,260.333 47.710,260.333 48.312 C 260.333 48.759,260.450 49.453,260.593 49.854 C 260.953 50.864,260.952 54.018,260.592 54.875 C 260.353 55.444,260.352 55.556,260.591 56.125 C 260.889 56.834,260.967 60.125,260.703 60.833 C 260.618 61.063,260.511 61.362,260.466 61.500 C 260.420 61.637,260.489 62.050,260.618 62.417 C 260.953 63.368,260.936 66.556,260.592 67.375 C 260.353 67.944,260.352 68.056,260.591 68.625 C 260.895 69.349,260.965 72.637,260.691 73.354 C 260.047 75.042,260.436 75.167,266.366 75.167 L 271.183 75.167 271.591 74.726 C 271.997 74.288,272.000 74.258,272.000 70.969 C 272.000 67.075,272.057 66.917,273.468 66.917 C 274.349 66.917,274.512 67.027,274.989 67.942 C 275.232 68.408,275.537 68.682,276.077 68.919 C 276.585 69.143,276.878 69.396,276.986 69.702 C 277.145 70.155,277.343 70.247,278.500 70.402 C 279.031 70.474,280.000 71.308,280.000 71.694 C 280.000 71.763,280.263 71.868,280.585 71.928 C 280.907 71.988,281.211 72.104,281.262 72.186 C 281.312 72.267,281.506 72.333,281.692 72.333 C 281.887 72.333,282.067 72.470,282.115 72.656 C 282.245 73.150,283.109 73.453,284.661 73.549 C 285.459 73.598,286.099 73.715,286.134 73.818 C 286.167 73.918,286.266 74.000,286.353 74.000 C 286.440 74.000,286.768 74.257,287.082 74.570 L 287.652 75.141 292.118 75.072 C 294.574 75.034,297.108 74.962,297.750 74.913 C 298.819 74.831,299.002 74.755,299.037 74.379 C 299.071 74.007,300.162 73.611,301.333 73.545 C 302.567 73.475,302.592 73.464,303.250 72.738 C 303.850 72.075,303.997 71.999,304.721 71.973 C 305.673 71.940,306.228 71.564,306.520 70.757 C 306.724 70.194,307.041 70.007,307.797 70.002 C 308.006 70.001,308.220 69.888,308.273 69.751 C 308.325 69.614,308.428 69.539,308.500 69.583 C 308.572 69.628,308.675 69.553,308.727 69.416 C 308.780 69.279,308.919 69.165,309.036 69.164 C 309.297 69.160,310.000 68.442,310.000 68.180 C 310.000 68.075,310.116 67.945,310.257 67.891 C 310.669 67.733,311.663 66.795,311.573 66.650 C 311.528 66.577,311.631 66.441,311.803 66.350 C 311.975 66.258,312.252 65.824,312.419 65.387 C 312.718 64.604,313.226 64.016,313.613 64.006 C 313.721 64.002,313.984 63.644,314.196 63.208 C 314.941 61.684,316.396 61.651,317.122 63.143 C 317.317 63.543,317.730 64.042,318.041 64.253 C 318.421 64.512,318.673 64.863,318.813 65.331 C 318.977 65.879,319.143 66.077,319.601 66.268 C 319.919 66.401,320.139 66.576,320.089 66.657 C 320.039 66.738,320.295 67.039,320.657 67.326 C 321.019 67.612,321.359 67.985,321.412 68.153 C 321.466 68.321,321.842 68.585,322.248 68.740 C 322.738 68.928,323.106 69.215,323.340 69.595 C 323.535 69.910,323.870 70.211,324.085 70.265 C 324.300 70.319,324.613 70.558,324.780 70.795 C 325.454 71.753,325.739 71.942,326.552 71.973 C 327.387 72.005,328.000 72.277,328.000 72.617 C 328.000 73.089,328.721 73.500,329.548 73.500 C 330.428 73.500,331.500 73.908,331.500 74.243 C 331.500 74.357,331.636 74.606,331.803 74.799 L 332.106 75.148 354.866 75.155 C 379.049 75.162,378.338 75.183,378.790 74.434 C 379.039 74.020,380.102 73.637,381.250 73.547 C 382.451 73.453,382.499 73.426,383.216 72.420 C 383.473 72.060,383.644 72.000,384.418 72.000 C 385.282 72.000,386.000 71.607,386.000 71.135 C 386.000 70.919,386.549 70.434,387.046 70.211 C 387.299 70.098,387.592 69.814,387.698 69.582 C 387.804 69.349,388.142 69.003,388.449 68.813 C 388.757 68.623,389.124 68.244,389.265 67.972 C 389.406 67.699,389.730 67.402,389.986 67.313 C 390.309 67.201,390.568 66.901,390.837 66.326 C 391.050 65.872,391.287 65.500,391.365 65.500 C 391.443 65.500,391.747 65.160,392.040 64.744 C 392.333 64.328,392.734 63.948,392.932 63.898 C 393.364 63.790,393.667 63.186,393.667 62.435 C 393.667 61.775,394.225 61.070,394.875 60.910 C 395.127 60.848,395.340 60.712,395.348 60.607 C 395.355 60.502,395.365 59.629,395.369 58.667 C 395.377 56.748,395.939 54.872,396.375 55.308 C 396.611 55.545,397.226 55.565,397.082 55.331 C 397.024 55.237,396.912 55.201,396.833 55.250 C 396.754 55.299,396.645 55.266,396.590 55.178 C 396.536 55.090,396.626 55.043,396.792 55.075 C 397.124 55.139,397.851 54.667,397.581 54.563 C 397.472 54.522,397.453 54.006,397.526 53.124 C 397.695 51.086,397.688 48.323,397.512 47.707 C 397.416 47.374,397.416 47.167,397.512 47.167 C 397.806 47.167,397.665 46.855,397.321 46.746 C 397.114 46.680,397.012 46.543,397.066 46.402 C 397.169 46.134,396.582 46.065,396.421 46.326 C 396.367 46.414,396.213 46.443,396.079 46.392 C 395.945 46.340,395.871 46.240,395.916 46.168 C 395.960 46.096,395.893 45.952,395.767 45.848 C 395.630 45.734,395.496 45.143,395.432 44.370 C 395.166 41.132,395.193 41.241,394.578 40.948 C 393.768 40.561,393.446 39.990,393.552 39.127 C 393.648 38.343,393.454 37.947,392.886 37.767 C 392.449 37.628,391.833 36.638,391.833 36.074 C 391.833 35.850,391.754 35.667,391.657 35.667 C 391.463 35.667,390.667 33.976,390.667 33.562 C 390.667 33.131,390.156 32.189,389.892 32.134 C 389.757 32.106,389.482 31.618,389.282 31.049 C 389.005 30.266,388.777 29.921,388.343 29.632 C 387.896 29.334,387.707 29.038,387.483 28.285 C 387.123 27.072,386.948 26.864,386.330 26.917 C 386.057 26.940,385.345 26.857,384.748 26.732 C 383.936 26.562,383.461 26.548,382.861 26.676 C 382.309 26.795,381.819 26.794,381.286 26.675 C 380.749 26.554,380.263 26.554,379.702 26.675 C 379.139 26.795,378.655 26.795,378.110 26.673 C 377.547 26.547,377.115 26.550,376.580 26.685 C 376.024 26.825,375.641 26.824,375.079 26.683 C 374.219 26.466,372.180 26.839,371.596 27.320 C 371.365 27.510,371.314 27.519,371.414 27.349 C 371.499 27.204,371.488 27.155,371.383 27.219 C 371.288 27.278,371.249 27.680,371.293 28.139 C 371.357 28.803,371.313 28.997,371.057 29.186 C 370.884 29.313,370.602 29.734,370.430 30.123 C 370.247 30.537,369.898 30.959,369.588 31.142 C 369.277 31.325,368.910 31.770,368.698 32.220 C 368.500 32.641,368.195 33.063,368.019 33.157 C 367.843 33.251,367.542 33.652,367.350 34.048 C 366.865 35.051,366.478 35.419,365.552 35.759 C 364.525 36.137,364.006 36.644,364.177 37.105 C 364.246 37.293,364.356 37.872,364.421 38.392 C 364.496 38.995,364.638 39.396,364.811 39.498 C 364.961 39.585,365.022 39.659,364.947 39.662 C 364.872 39.664,364.959 39.875,365.140 40.129 C 365.321 40.383,365.558 41.040,365.667 41.587 C 366.032 43.422,366.133 43.745,366.650 44.750 C 366.934 45.300,367.166 45.867,367.166 46.010 C 367.167 46.332,367.770 47.000,368.060 47.000 C 368.661 47.000,369.989 46.465,370.077 46.187 C 370.167 45.903,370.581 45.678,371.956 45.163 C 372.253 45.052,372.457 44.899,372.410 44.822 C 372.363 44.746,372.495 44.595,372.704 44.488 C 373.245 44.209,374.000 43.475,374.000 43.227 C 374.000 43.111,374.105 42.957,374.233 42.883 C 374.361 42.810,374.636 42.450,374.844 42.083 C 375.331 41.227,375.832 40.667,376.112 40.667 C 376.234 40.667,376.333 40.580,376.333 40.474 C 376.333 38.920,379.443 38.682,379.733 40.214 C 379.789 40.509,379.871 40.936,379.915 41.163 C 379.959 41.391,380.259 41.818,380.581 42.113 C 380.903 42.408,381.167 42.767,381.167 42.910 C 381.167 43.253,381.461 43.764,382.118 44.561 C 382.443 44.955,382.692 45.480,382.754 45.897 C 382.893 46.844,382.934 47.045,383.050 47.333 C 383.178 47.654,383.116 48.606,382.956 48.766 C 382.744 48.979,382.810 49.867,383.028 49.732 C 383.159 49.651,383.188 49.703,383.117 49.889 C 383.058 50.042,383.083 50.167,383.172 50.167 C 383.261 50.167,383.333 50.279,383.333 50.417 C 383.333 50.554,383.446 50.667,383.583 50.667 C 383.940 50.667,383.930 52.284,383.571 52.680 C 383.427 52.839,383.270 53.220,383.223 53.527 C 383.147 54.021,382.888 55.054,382.575 56.111 C 382.517 56.309,382.307 56.515,382.109 56.568 C 381.789 56.653,381.598 56.931,380.932 58.285 C 380.832 58.488,380.600 58.738,380.417 58.840 C 380.233 58.942,379.858 59.318,379.583 59.674 C 379.308 60.030,378.877 60.418,378.625 60.535 C 378.373 60.652,378.167 60.805,378.167 60.874 C 378.167 60.943,378.064 61.000,377.938 61.000 C 377.812 61.000,377.418 61.269,377.063 61.599 C 376.196 62.402,375.889 62.499,374.197 62.504 C 372.767 62.507,371.553 62.843,371.261 63.315 C 371.181 63.445,371.009 63.427,370.678 63.256 C 370.420 63.123,370.162 63.060,370.104 63.118 C 370.047 63.175,370.000 63.135,370.000 63.028 C 370.000 62.746,361.648 62.752,361.367 63.033 C 361.257 63.143,361.167 63.179,361.167 63.112 C 361.167 63.046,360.933 63.112,360.648 63.260 C 360.274 63.453,360.078 63.478,359.948 63.348 C 359.848 63.248,359.594 63.167,359.383 63.167 C 359.172 63.167,359.000 63.092,359.000 63.000 C 359.000 62.899,358.257 62.830,357.125 62.824 C 356.094 62.818,354.950 62.758,354.583 62.688 C 353.860 62.552,353.295 62.711,352.726 63.211 C 352.442 63.461,352.297 63.488,352.018 63.346 C 351.825 63.247,351.518 63.092,351.336 63.000 C 351.154 62.908,350.179 62.833,349.169 62.833 C 348.056 62.833,347.333 62.899,347.333 63.000 C 347.333 63.092,347.161 63.167,346.950 63.167 C 346.739 63.167,346.485 63.248,346.386 63.348 C 346.256 63.478,346.065 63.456,345.707 63.271 C 345.433 63.129,345.162 63.060,345.104 63.118 C 345.047 63.175,345.000 63.135,345.000 63.028 C 345.000 62.753,341.309 62.758,341.033 63.033 C 340.923 63.143,340.833 63.179,340.833 63.112 C 340.833 63.046,340.609 63.107,340.336 63.249 C 340.003 63.421,339.741 63.456,339.544 63.356 C 338.766 62.958,338.311 62.853,337.011 62.766 C 336.238 62.715,335.529 62.596,335.436 62.503 C 335.343 62.410,334.793 62.333,334.214 62.333 C 333.229 62.333,333.124 62.295,332.594 61.750 C 332.283 61.429,331.908 61.167,331.762 61.167 C 331.616 61.167,331.368 61.017,331.211 60.833 C 331.054 60.650,330.873 60.500,330.808 60.500 C 330.744 60.500,329.864 59.664,328.853 58.642 C 326.940 56.708,326.715 56.321,326.420 54.470 C 326.358 54.078,326.113 53.646,325.745 53.278 L 325.167 52.700 325.167 50.023 C 325.167 47.492,325.186 47.328,325.528 47.010 C 326.066 46.509,326.498 45.795,326.499 45.405 C 326.500 44.932,326.984 44.027,327.584 43.373 C 328.922 41.915,331.714 39.175,331.809 39.227 C 331.868 39.260,332.267 39.091,332.696 38.851 C 335.051 37.538,334.473 37.660,338.332 37.659 C 341.999 37.659,342.571 37.761,343.370 38.560 C 343.501 38.691,343.958 38.958,344.387 39.153 C 344.816 39.349,345.167 39.607,345.167 39.729 C 345.167 40.049,345.746 40.667,346.047 40.667 C 347.149 40.667,348.487 41.969,348.503 43.055 C 348.506 43.294,349.231 44.000,349.472 44.000 C 349.745 44.000,349.816 44.205,350.021 45.582 C 350.154 46.478,350.326 47.000,350.588 47.305 C 350.945 47.719,350.949 47.755,350.672 47.996 C 350.511 48.136,350.225 48.587,350.036 49.000 C 349.540 50.083,347.271 50.709,346.416 49.999 C 346.217 49.835,346.115 49.835,345.913 50.003 C 345.533 50.318,343.837 50.286,343.129 49.950 C 342.534 49.667,342.188 49.058,342.122 48.177 C 342.107 47.988,342.032 47.833,341.955 47.833 C 341.877 47.833,341.858 47.762,341.912 47.675 C 341.966 47.587,341.708 47.343,341.338 47.133 C 340.969 46.922,340.624 46.619,340.572 46.458 C 340.520 46.298,340.403 46.167,340.312 46.167 C 340.221 46.167,340.190 46.097,340.243 46.012 C 340.371 45.804,339.932 45.687,338.866 45.643 C 338.380 45.623,337.948 45.551,337.906 45.483 C 337.461 44.763,333.870 45.330,332.931 46.269 C 332.621 46.579,332.252 46.833,332.111 46.833 C 331.811 46.833,331.167 47.681,331.167 48.076 C 331.167 48.226,331.049 48.577,330.906 48.854 C 330.172 50.273,330.948 54.182,332.099 54.863 C 332.382 55.031,332.700 55.358,332.806 55.589 C 333.124 56.289,333.308 56.298,346.805 56.322 C 359.824 56.345,361.581 56.282,362.109 55.770 C 362.557 55.337,362.724 52.021,362.391 50.183 C 362.236 49.326,362.243 48.967,362.426 48.359 C 362.570 47.878,362.596 47.533,362.497 47.413 C 362.411 47.309,362.312 47.042,362.278 46.820 C 362.244 46.598,362.112 46.417,361.983 46.417 C 361.818 46.417,361.726 46.121,361.667 45.400 C 361.621 44.841,361.497 44.279,361.390 44.150 C 361.284 44.022,361.121 43.504,361.028 43.000 C 360.798 41.754,360.620 41.347,360.016 40.678 C 359.575 40.189,359.500 39.978,359.500 39.216 C 359.500 38.374,359.456 38.282,358.682 37.499 C 357.932 36.742,357.484 35.720,357.638 35.118 C 357.656 35.045,357.427 34.881,357.127 34.754 C 355.896 34.232,354.837 33.135,354.834 32.381 C 354.833 31.884,354.242 31.366,353.424 31.147 C 353.053 31.047,352.426 30.748,352.031 30.481 C 351.635 30.215,351.354 30.065,351.406 30.149 C 351.458 30.233,351.313 30.215,351.085 30.109 C 350.856 30.003,350.669 29.856,350.668 29.782 C 350.667 29.708,350.592 29.693,350.500 29.750 C 350.408 29.807,350.331 29.755,350.329 29.635 C 350.317 29.067,349.312 28.447,347.690 28.006 C 347.239 27.884,346.932 27.694,346.884 27.508 C 346.743 26.972,345.108 26.500,343.387 26.500 C 342.881 26.500,342.219 26.382,341.915 26.238 C 341.413 26.000,341.317 26.000,340.856 26.238 C 340.233 26.560,339.550 26.565,339.000 26.250 C 338.479 25.952,335.082 25.915,334.588 26.201  M -25 0 L -5 0 L -5 20 L -25 20 Z M 405 0 L 425 0 L 425 20 L 405 20 Z" stroke="none" fill="#fcfcfc" fill-rule="evenodd" transform="translate(30,0)"></path><path id="path1" d="M0.000 50.000 L 0.000 100.000 200.000 100.000 L 400.000 100.000 400.000 50.000 L 400.000 0.000 200.000 0.000 L 0.000 0.000 0.000 50.000 M32.414 11.996 C 32.474 12.093,32.612 12.119,32.720 12.054 C 32.858 11.971,32.855 12.013,32.710 12.192 C 32.596 12.332,32.532 12.478,32.568 12.515 C 32.913 12.873,32.975 22.743,32.637 23.449 C 32.296 24.162,31.002 24.724,29.583 24.776 C 27.936 24.836,25.667 25.469,25.667 25.868 C 25.667 25.952,25.592 25.973,25.500 25.917 C 25.408 25.860,25.333 25.893,25.333 25.990 C 25.333 26.087,25.277 26.151,25.208 26.133 C 24.782 26.016,23.767 26.616,23.158 27.344 C 22.779 27.797,22.406 28.129,22.330 28.082 C 22.254 28.035,22.031 28.222,21.835 28.498 C 21.638 28.774,21.530 29.000,21.595 29.000 C 21.660 29.000,21.445 29.253,21.118 29.561 C 20.791 29.870,20.413 30.385,20.279 30.705 C 20.118 31.091,19.868 31.347,19.540 31.461 C 19.006 31.647,18.928 31.865,18.748 33.667 C 18.555 35.609,18.473 35.989,18.165 36.381 C 17.863 36.765,17.862 36.801,18.135 37.101 C 18.294 37.275,18.431 37.548,18.441 37.708 C 18.450 37.869,18.468 38.109,18.479 38.241 C 18.549 39.045,19.312 39.420,20.724 39.343 C 22.407 39.252,29.082 39.250,31.009 39.341 C 32.314 39.402,32.469 39.375,32.842 39.026 C 33.066 38.816,33.495 38.528,33.794 38.385 C 34.094 38.243,34.329 38.042,34.316 37.938 C 34.204 36.997,34.362 36.632,35.250 35.771 C 35.754 35.283,36.167 34.806,36.167 34.712 C 36.167 34.618,36.389 34.448,36.662 34.335 C 36.934 34.223,37.298 33.907,37.471 33.634 C 37.644 33.362,37.980 33.010,38.219 32.853 C 38.458 32.697,38.828 32.309,39.041 31.993 C 39.254 31.676,39.720 31.279,40.077 31.110 C 40.434 30.941,40.868 30.622,41.042 30.401 C 41.215 30.181,41.446 29.999,41.554 29.997 C 41.880 29.992,43.162 29.052,43.035 28.911 C 42.970 28.839,43.005 28.831,43.113 28.893 C 43.222 28.955,43.355 28.934,43.409 28.846 C 43.463 28.758,43.833 28.637,44.231 28.578 C 44.628 28.518,45.133 28.303,45.352 28.101 C 45.571 27.899,45.881 27.683,46.042 27.622 C 46.202 27.560,46.333 27.403,46.333 27.272 C 46.333 26.836,47.387 26.637,50.167 26.549 C 52.026 26.490,53.062 26.387,53.367 26.231 C 54.302 25.752,55.503 25.932,56.284 26.669 L 56.984 27.330 57.012 29.086 C 57.039 30.800,57.052 30.855,57.562 31.424 C 58.114 32.041,58.744 32.278,58.956 31.948 C 59.026 31.839,59.515 31.535,60.042 31.271 C 60.702 30.941,61.000 30.694,61.000 30.477 C 61.000 30.280,61.203 30.074,61.542 29.928 C 61.840 29.800,62.362 29.573,62.703 29.425 C 63.044 29.277,63.381 29.056,63.453 28.934 C 63.645 28.606,64.536 28.191,65.316 28.067 C 65.692 28.007,66.000 27.897,66.000 27.823 C 66.000 27.749,66.151 27.641,66.336 27.583 C 66.520 27.524,66.634 27.415,66.588 27.340 C 66.541 27.266,66.615 27.112,66.752 26.998 C 66.888 26.885,67.000 26.842,67.000 26.902 C 67.000 26.962,67.169 26.921,67.375 26.810 C 67.728 26.620,68.238 26.574,70.535 26.522 C 71.488 26.500,72.333 25.970,72.333 25.395 C 72.333 25.140,72.795 24.970,72.923 25.177 C 72.978 25.266,73.086 25.300,73.164 25.252 C 73.242 25.204,73.529 25.352,73.802 25.582 C 74.257 25.965,74.433 26.000,75.910 26.000 C 76.869 26.000,77.669 26.082,77.886 26.203 C 78.086 26.315,79.188 26.458,80.333 26.521 C 83.283 26.683,83.676 26.767,84.182 27.347 C 84.652 27.884,85.401 28.167,86.357 28.167 C 86.873 28.167,87.063 28.281,87.608 28.921 C 87.961 29.336,88.438 29.711,88.667 29.754 C 88.896 29.797,89.318 29.876,89.605 29.931 C 89.931 29.993,90.212 30.190,90.355 30.457 C 90.480 30.692,90.808 30.980,91.083 31.096 C 91.721 31.366,92.333 31.939,92.333 32.267 C 92.333 32.577,94.114 34.333,94.429 34.333 C 94.788 34.333,95.266 34.952,95.494 35.712 C 95.813 36.777,97.663 38.590,98.006 38.173 C 98.140 38.010,98.593 37.721,99.012 37.531 C 99.757 37.193,100.222 36.444,100.222 35.580 C 100.222 35.444,100.341 35.228,100.486 35.100 C 100.631 34.971,101.035 34.577,101.383 34.225 C 101.731 33.872,102.293 33.303,102.633 32.961 C 102.972 32.618,103.185 32.337,103.105 32.336 C 103.025 32.334,103.053 32.221,103.167 32.083 C 103.281 31.946,103.309 31.832,103.229 31.830 C 103.149 31.829,103.428 31.623,103.848 31.372 C 104.269 31.122,104.810 30.703,105.050 30.441 C 105.333 30.133,105.710 29.935,106.119 29.881 C 106.904 29.776,107.667 29.395,107.667 29.108 C 107.667 28.624,108.409 28.209,109.431 28.123 C 110.462 28.035,111.167 27.740,111.167 27.397 C 111.167 27.202,111.766 26.903,112.500 26.732 C 112.729 26.679,113.779 26.600,114.833 26.558 C 116.068 26.509,116.975 26.386,117.381 26.213 C 117.964 25.964,118.056 25.965,118.595 26.222 C 119.519 26.663,119.918 26.582,120.520 25.833 C 121.048 25.177,121.500 24.966,121.500 25.377 C 121.500 26.141,122.298 26.499,124.048 26.522 C 128.475 26.579,129.404 26.748,129.761 27.563 C 129.903 27.886,130.382 28.078,131.892 28.418 C 132.313 28.513,132.667 28.826,132.667 29.104 C 132.667 29.230,132.779 29.333,132.917 29.333 C 133.054 29.333,133.167 29.393,133.167 29.465 C 133.167 29.538,133.489 29.684,133.883 29.789 C 134.277 29.895,134.875 30.240,135.211 30.557 C 135.547 30.875,136.123 31.273,136.490 31.442 C 136.858 31.611,137.160 31.844,137.162 31.958 C 137.165 32.073,137.254 32.167,137.361 32.167 C 137.468 32.167,137.508 32.214,137.450 32.273 C 137.391 32.331,137.637 32.612,137.995 32.898 C 138.714 33.470,139.500 34.537,139.500 34.940 C 139.500 35.082,139.645 35.236,139.822 35.282 C 140.139 35.365,140.667 36.248,140.667 36.696 C 140.667 36.964,141.185 37.440,141.763 37.703 C 141.985 37.804,142.178 38.006,142.192 38.152 C 142.206 38.297,142.235 38.492,142.256 38.583 C 142.277 38.675,142.304 39.018,142.314 39.346 C 142.325 39.679,142.462 40.059,142.625 40.209 C 142.785 40.356,143.115 40.658,143.358 40.881 C 143.770 41.258,143.789 41.338,143.648 42.092 C 143.508 42.846,143.564 43.748,143.789 44.333 C 143.841 44.471,143.915 44.771,143.952 45.000 C 143.989 45.229,144.145 45.604,144.297 45.833 C 144.449 46.063,144.557 46.306,144.537 46.375 C 144.517 46.444,144.600 46.500,144.722 46.500 C 144.844 46.500,144.964 46.594,144.988 46.708 C 145.058 47.049,145.212 50.017,145.206 50.917 C 145.182 54.335,145.172 54.449,144.840 54.871 C 144.659 55.101,144.546 55.336,144.589 55.394 C 144.632 55.452,144.615 55.461,144.552 55.413 C 144.488 55.365,144.084 55.673,143.653 56.097 C 142.976 56.764,142.759 56.877,142.060 56.932 C 141.614 56.967,141.175 57.090,141.083 57.206 C 140.752 57.623,139.060 57.700,138.818 57.309 C 138.643 57.026,138.012 57.009,137.858 57.283 C 137.566 57.804,135.892 57.621,135.475 57.022 L 135.200 56.627 134.928 57.043 C 134.494 57.705,132.500 57.784,132.500 57.140 C 132.500 57.063,132.313 57.000,132.083 57.000 C 131.854 57.000,131.667 57.066,131.667 57.146 C 131.667 57.661,129.782 57.748,129.404 57.251 C 129.150 56.917,122.407 56.900,122.279 57.233 C 122.087 57.735,120.000 57.649,120.000 57.140 C 120.000 57.063,119.554 57.000,119.010 57.000 C 118.465 57.000,117.976 56.930,117.923 56.844 C 117.870 56.759,117.397 56.568,116.872 56.420 C 115.439 56.018,115.000 55.817,115.000 55.563 C 115.000 55.437,114.899 55.333,114.775 55.333 C 114.652 55.333,114.414 55.015,114.248 54.625 C 114.081 54.235,113.627 53.613,113.239 53.241 C 112.548 52.581,112.536 52.550,112.676 51.825 C 112.754 51.417,112.822 50.632,112.826 50.081 C 112.832 49.200,112.886 49.040,113.269 48.752 C 113.508 48.572,113.882 48.022,114.100 47.530 C 114.907 45.705,115.933 45.070,117.818 45.229 C 118.503 45.287,119.110 45.408,119.165 45.498 C 119.221 45.587,119.450 45.620,119.675 45.570 C 121.160 45.242,121.603 45.368,122.097 46.258 C 122.196 46.437,122.435 46.655,122.627 46.743 C 122.819 46.831,123.151 47.198,123.363 47.559 C 124.255 49.074,125.272 49.833,126.409 49.833 C 126.973 49.833,127.515 49.915,127.615 50.015 C 127.828 50.228,129.859 50.273,130.186 50.071 C 130.310 49.995,130.525 49.915,130.664 49.894 C 131.302 49.798,131.531 49.706,131.993 49.365 C 133.063 48.574,132.946 46.000,131.839 46.000 C 131.410 46.000,131.301 45.782,131.244 44.810 C 131.202 44.100,130.540 42.447,130.185 42.167 C 130.127 42.121,130.004 41.858,129.912 41.583 C 129.785 41.199,129.572 41.022,128.998 40.819 C 127.833 40.406,127.686 40.322,127.589 40.017 C 127.490 39.704,126.000 38.833,125.565 38.833 C 125.416 38.833,124.867 38.574,124.345 38.257 L 123.397 37.681 120.657 37.667 C 115.796 37.641,116.210 37.594,115.582 38.240 C 115.217 38.616,114.805 38.850,114.388 38.919 C 113.490 39.068,112.359 39.656,112.238 40.037 C 112.182 40.214,112.094 40.317,112.043 40.266 C 111.926 40.149,111.167 41.018,111.167 41.269 C 111.167 41.599,110.485 42.333,110.179 42.333 C 109.607 42.333,109.082 43.025,109.102 43.752 C 109.124 44.581,108.919 45.167,108.607 45.167 C 107.271 45.167,107.504 54.628,108.870 55.813 C 109.136 56.044,109.372 56.461,109.436 56.813 C 109.504 57.181,109.749 57.599,110.065 57.885 C 110.350 58.143,110.584 58.406,110.585 58.469 C 110.587 58.723,111.115 59.291,111.625 59.589 C 111.923 59.763,112.207 60.031,112.256 60.185 C 112.333 60.427,113.733 61.167,114.115 61.167 C 114.190 61.167,114.455 61.382,114.703 61.646 C 115.526 62.517,116.471 62.833,118.255 62.833 C 119.538 62.833,119.978 62.900,120.526 63.180 C 121.014 63.429,121.257 63.476,121.386 63.347 C 121.486 63.248,121.706 63.167,121.877 63.167 C 122.047 63.167,122.147 63.103,122.098 63.024 C 121.888 62.684,124.447 62.811,125.146 63.175 L 125.833 63.534 126.505 63.183 C 127.330 62.754,127.343 62.753,128.272 63.177 C 128.862 63.446,129.077 63.477,129.263 63.323 C 129.393 63.214,129.500 63.177,129.500 63.239 C 129.500 63.301,129.667 63.235,129.870 63.093 C 130.379 62.737,132.376 62.733,132.670 63.087 C 132.786 63.227,132.918 63.305,132.962 63.260 C 133.007 63.215,133.175 63.248,133.335 63.334 C 133.539 63.443,133.828 63.392,134.305 63.161 C 135.150 62.753,135.355 62.753,136.153 63.160 C 136.504 63.339,136.832 63.446,136.881 63.397 C 136.961 63.317,137.361 63.213,137.718 63.179 C 137.792 63.172,137.807 63.092,137.750 63.000 C 137.589 62.739,138.328 62.805,138.599 63.075 C 138.954 63.430,139.124 64.604,139.036 66.098 C 138.993 66.823,138.959 67.698,138.959 68.042 C 138.959 68.385,138.959 69.079,138.959 69.583 C 138.959 71.297,138.967 71.749,139.025 73.122 C 139.117 75.279,140.368 75.083,126.454 75.083 L 114.658 75.083 114.464 74.545 C 114.262 73.987,113.624 73.573,112.796 73.462 C 112.548 73.429,112.293 73.349,112.229 73.284 C 112.164 73.220,111.908 73.167,111.659 73.167 C 111.410 73.167,110.777 72.907,110.250 72.591 C 109.724 72.274,108.967 71.966,108.569 71.906 C 108.170 71.846,107.758 71.694,107.653 71.567 C 107.548 71.441,107.396 71.378,107.314 71.428 C 107.233 71.479,107.167 71.413,107.167 71.282 C 107.167 71.033,106.161 70.293,105.566 70.104 C 105.376 70.044,105.122 69.811,105.002 69.587 C 104.882 69.364,104.455 69.026,104.053 68.837 C 103.612 68.629,103.259 68.327,103.163 68.073 C 103.075 67.842,102.792 67.532,102.535 67.384 C 102.277 67.236,101.855 66.821,101.597 66.462 C 101.338 66.102,100.952 65.728,100.738 65.631 C 100.344 65.451,99.833 64.587,99.833 64.098 C 99.833 63.951,99.599 63.587,99.313 63.290 C 99.027 62.993,98.605 62.319,98.375 61.792 C 98.145 61.265,97.893 60.833,97.815 60.833 C 97.560 60.833,97.124 60.003,96.983 59.248 C 96.787 58.199,96.407 57.699,95.649 57.495 C 95.292 57.399,95.000 57.248,95.000 57.160 C 95.000 57.072,94.813 57.000,94.583 57.000 C 94.354 57.000,94.167 57.066,94.167 57.146 C 94.167 57.638,92.304 57.753,91.916 57.285 C 91.669 56.987,91.287 56.946,91.089 57.197 C 90.754 57.622,89.063 57.706,88.818 57.309 C 88.643 57.026,88.012 57.009,87.858 57.283 C 87.781 57.420,87.436 57.515,86.990 57.520 C 85.947 57.531,85.693 57.477,85.594 57.217 C 85.493 56.954,77.000 56.904,77.000 57.166 C 77.000 57.344,76.395 57.563,75.833 57.588 C 75.354 57.610,74.667 57.346,74.667 57.140 C 74.667 57.063,74.260 57.000,73.764 57.000 C 73.267 57.000,72.648 56.895,72.389 56.766 C 71.478 56.315,70.582 55.940,70.475 55.964 C 70.415 55.978,70.321 55.805,70.264 55.581 C 70.208 55.356,69.940 55.058,69.669 54.918 C 68.213 54.165,68.312 47.993,69.795 47.046 C 70.243 46.760,70.770 46.163,70.717 46.000 C 70.659 45.820,71.127 45.694,72.001 45.655 C 72.505 45.632,73.011 45.540,73.127 45.451 C 73.388 45.250,76.248 45.276,76.634 45.483 C 76.789 45.566,76.992 45.642,77.083 45.652 C 77.446 45.692,77.854 45.868,77.773 45.950 C 77.683 46.039,77.920 46.375,78.315 46.716 C 79.103 47.398,79.745 48.146,79.937 48.607 C 80.405 49.727,81.751 50.209,84.381 50.197 C 86.608 50.187,87.072 50.011,87.536 49.000 C 87.725 48.587,88.011 48.136,88.172 47.996 C 88.449 47.755,88.445 47.719,88.088 47.305 C 87.826 47.000,87.654 46.478,87.521 45.582 C 87.316 44.205,87.245 44.000,86.972 44.000 C 86.700 44.000,86.006 43.280,86.003 42.995 C 85.999 42.650,83.929 40.667,83.573 40.667 C 83.251 40.667,82.667 40.062,82.667 39.729 C 82.667 39.607,82.316 39.349,81.887 39.153 C 81.458 38.958,81.001 38.691,80.870 38.560 C 80.071 37.761,79.499 37.659,75.832 37.659 C 71.973 37.660,72.551 37.538,70.196 38.851 C 69.767 39.091,69.368 39.260,69.309 39.227 C 69.214 39.175,66.422 41.915,65.084 43.373 C 64.484 44.027,64.000 44.932,63.999 45.405 C 63.998 45.788,63.568 46.507,63.053 46.987 C 62.575 47.432,62.275 49.081,62.495 50.059 C 62.614 50.594,62.610 51.079,62.481 51.682 C 62.332 52.376,62.340 52.569,62.523 52.685 C 62.648 52.764,62.689 52.829,62.614 52.831 C 62.539 52.832,62.616 53.040,62.786 53.292 C 63.188 53.887,63.440 54.417,63.745 55.303 C 64.040 56.159,64.558 56.935,65.199 57.483 C 65.456 57.702,65.667 58.051,65.667 58.259 C 65.667 58.487,65.882 58.806,66.208 59.062 C 66.885 59.594,67.073 59.782,67.604 60.458 C 67.877 60.806,68.176 61.000,68.437 61.000 C 69.013 61.000,69.986 61.436,70.106 61.748 C 70.384 62.474,71.431 62.713,74.667 62.792 C 77.144 62.852,77.807 62.917,78.042 63.126 C 78.202 63.268,78.333 63.333,78.333 63.270 C 78.333 63.207,78.480 63.233,78.659 63.329 C 78.909 63.463,79.122 63.426,79.580 63.168 C 80.326 62.750,80.679 62.748,81.486 63.160 C 81.838 63.339,82.165 63.446,82.214 63.397 C 82.294 63.317,82.694 63.213,83.052 63.179 C 83.126 63.172,83.140 63.092,83.083 63.000 C 82.895 62.695,90.250 62.782,90.503 63.087 C 90.619 63.227,90.751 63.305,90.796 63.260 C 90.840 63.215,91.014 63.251,91.181 63.341 C 91.402 63.460,91.640 63.416,92.064 63.178 C 93.066 62.615,93.466 62.804,93.624 63.916 C 93.663 64.191,93.765 64.501,93.852 64.605 C 93.942 64.714,94.003 66.652,93.994 69.161 C 93.983 72.789,94.023 73.593,94.231 73.912 C 94.519 74.350,94.470 74.427,93.667 74.801 C 93.068 75.080,70.667 75.251,70.667 74.976 C 70.667 74.918,70.481 74.823,70.255 74.766 C 70.028 74.709,69.763 74.514,69.666 74.331 C 69.568 74.149,69.385 74.000,69.258 74.000 C 69.131 74.000,68.999 73.913,68.964 73.808 C 68.925 73.693,68.355 73.584,67.542 73.537 C 66.171 73.457,65.500 73.151,65.500 72.605 C 65.500 72.286,64.865 72.032,63.866 71.952 C 63.169 71.896,62.922 71.796,62.703 71.482 C 62.236 70.813,61.686 70.379,61.178 70.277 C 60.877 70.217,60.580 69.988,60.394 69.674 C 60.230 69.395,59.965 69.167,59.807 69.167 C 59.649 69.167,59.469 69.084,59.406 68.983 C 59.344 68.882,59.039 68.693,58.730 68.564 C 58.420 68.435,58.167 68.240,58.167 68.131 C 58.167 67.869,57.157 66.833,56.902 66.833 C 56.792 66.833,56.656 66.646,56.598 66.417 C 56.541 66.188,56.420 66.000,56.330 66.000 C 56.240 66.000,56.167 65.893,56.167 65.762 C 56.167 65.631,55.900 65.241,55.574 64.895 C 55.244 64.546,54.896 63.948,54.789 63.550 C 54.684 63.156,54.538 62.833,54.465 62.833 C 54.393 62.833,54.333 62.730,54.333 62.603 C 54.333 62.476,54.184 62.333,54.002 62.286 C 53.557 62.169,53.332 61.598,53.098 59.983 C 53.037 59.561,52.837 59.054,52.654 58.858 C 52.470 58.661,52.370 58.500,52.431 58.500 C 52.491 58.500,52.463 58.406,52.368 58.291 C 51.575 57.337,51.143 48.810,51.719 45.500 C 51.839 44.813,51.920 43.950,51.899 43.583 C 51.863 42.947,52.174 42.333,52.533 42.333 C 52.615 42.333,52.847 42.161,53.049 41.951 C 53.431 41.553,53.592 41.167,53.375 41.167 C 53.306 41.166,53.227 40.818,53.200 40.391 C 53.154 39.672,52.894 38.875,52.543 38.375 C 52.429 38.212,52.247 38.239,51.717 38.495 C 51.342 38.676,50.709 38.870,50.310 38.927 C 49.080 39.103,48.554 39.455,46.788 41.287 C 45.851 42.259,44.887 43.251,44.647 43.490 C 44.407 43.730,44.021 44.339,43.790 44.844 C 43.560 45.349,43.250 45.862,43.102 45.984 C 42.922 46.134,42.833 46.476,42.833 47.026 C 42.833 47.519,42.720 48.019,42.548 48.281 C 42.233 48.761,42.122 49.120,42.171 49.500 C 42.257 50.170,42.333 73.968,42.251 74.302 C 42.068 75.037,41.489 75.117,36.612 75.079 C 32.114 75.044,30.232 74.869,29.973 74.462 C 29.899 74.346,29.822 69.750,29.803 64.250 C 29.755 51.030,29.790 52.148,29.413 51.707 C 29.095 51.336,29.059 51.333,24.309 51.333 L 19.526 51.333 19.016 51.762 C 18.549 52.155,18.514 52.255,18.596 52.970 C 19.003 56.539,18.638 64.146,18.037 64.622 C 17.802 64.808,17.805 64.859,18.060 65.141 C 18.710 65.859,18.660 67.425,17.974 67.849 C 17.856 67.922,17.922 68.134,18.164 68.460 C 18.647 69.114,18.649 70.050,18.169 70.699 C 17.855 71.124,17.838 71.219,18.048 71.388 C 18.678 71.895,18.697 73.704,18.074 73.943 C 17.943 73.994,17.878 74.104,17.930 74.188 C 17.982 74.273,17.963 74.322,17.887 74.297 C 17.812 74.273,17.412 74.373,17.000 74.520 C 15.455 75.071,14.571 75.158,10.792 75.131 C 8.706 75.117,7.000 75.056,7.000 74.997 C 7.000 74.938,6.812 74.789,6.583 74.667 L 6.167 74.444 6.167 71.826 C 6.167 69.865,6.103 69.056,5.914 68.604 C 5.689 68.065,5.689 67.935,5.914 67.396 C 6.262 66.565,6.283 58.709,5.941 57.729 C 5.756 57.199,5.754 56.979,5.928 56.500 C 6.258 55.597,6.247 49.066,5.914 48.270 C 5.689 47.731,5.689 47.602,5.914 47.063 C 6.265 46.225,6.272 41.507,5.925 40.522 C 5.713 39.922,5.713 39.763,5.925 39.257 C 6.096 38.846,6.167 38.010,6.168 36.380 C 6.169 33.920,6.309 33.105,6.834 32.499 C 7.205 32.071,7.258 31.743,6.984 31.573 C 6.883 31.511,6.704 31.230,6.586 30.949 C 6.352 30.395,6.436 30.224,7.121 29.858 C 7.523 29.643,7.831 28.753,7.832 27.803 C 7.833 27.281,7.942 27.100,8.560 26.593 C 9.241 26.036,9.293 25.933,9.378 24.993 C 9.484 23.829,9.594 23.659,10.499 23.250 C 10.866 23.085,11.167 22.891,11.167 22.819 C 11.167 22.747,11.254 22.477,11.360 22.219 C 11.467 21.961,11.542 21.694,11.527 21.625 C 11.512 21.556,11.579 21.500,11.677 21.500 C 11.774 21.500,11.807 21.425,11.750 21.333 C 11.693 21.242,11.726 21.167,11.823 21.167 C 11.921 21.167,12.000 21.069,12.000 20.949 C 12.000 20.830,12.274 20.474,12.608 20.158 C 12.943 19.842,13.162 19.696,13.096 19.833 C 13.029 19.971,13.131 19.896,13.323 19.667 C 13.514 19.438,13.872 19.011,14.117 18.718 C 14.362 18.425,14.620 18.221,14.690 18.264 C 14.760 18.307,14.906 18.172,15.016 17.963 C 15.265 17.489,15.614 17.277,16.225 17.228 C 16.509 17.205,16.879 16.989,17.148 16.688 C 17.395 16.411,17.819 16.093,18.090 15.981 C 18.664 15.745,18.580 15.769,19.366 15.612 C 19.767 15.531,20.018 15.372,20.087 15.156 C 20.322 14.413,21.020 14.000,22.037 14.000 C 23.003 14.000,24.333 13.598,24.333 13.305 C 24.333 13.218,24.402 13.189,24.485 13.241 C 24.656 13.347,24.616 12.655,24.434 12.361 C 24.360 12.241,24.404 12.204,24.553 12.261 C 24.684 12.312,24.832 12.243,24.883 12.110 C 25.000 11.805,32.229 11.696,32.414 11.996 M339.000 26.250 C 339.550 26.565,340.233 26.560,340.856 26.238 C 341.317 26.000,341.413 26.000,341.915 26.238 C 342.219 26.382,342.881 26.500,343.387 26.500 C 345.108 26.500,346.743 26.972,346.884 27.508 C 346.932 27.694,347.239 27.884,347.690 28.006 C 349.312 28.447,350.317 29.067,350.329 29.635 C 350.331 29.755,350.408 29.807,350.500 29.750 C 350.592 29.693,350.667 29.708,350.668 29.782 C 350.669 29.856,350.856 30.003,351.085 30.109 C 351.313 30.215,351.458 30.233,351.406 30.149 C 351.354 30.065,351.635 30.215,352.031 30.481 C 352.426 30.748,353.053 31.047,353.424 31.147 C 354.242 31.366,354.833 31.884,354.834 32.381 C 354.837 33.135,355.896 34.232,357.127 34.754 C 357.427 34.881,357.656 35.045,357.638 35.118 C 357.484 35.720,357.932 36.742,358.682 37.499 C 359.456 38.282,359.500 38.374,359.500 39.216 C 359.500 39.978,359.575 40.189,360.016 40.678 C 360.620 41.347,360.798 41.754,361.028 43.000 C 361.121 43.504,361.284 44.022,361.390 44.150 C 361.497 44.279,361.621 44.841,361.667 45.400 C 361.726 46.121,361.818 46.417,361.983 46.417 C 362.112 46.417,362.244 46.598,362.278 46.820 C 362.312 47.042,362.411 47.309,362.497 47.413 C 362.596 47.533,362.570 47.878,362.426 48.359 C 362.243 48.967,362.236 49.326,362.391 50.183 C 362.724 52.021,362.557 55.337,362.109 55.770 C 361.581 56.282,359.824 56.345,346.805 56.322 C 333.308 56.298,333.124 56.289,332.806 55.589 C 332.700 55.358,332.382 55.031,332.099 54.863 C 331.241 54.355,330.788 53.090,330.707 50.971 C 330.660 49.740,330.707 49.239,330.906 48.854 C 331.049 48.577,331.167 48.226,331.167 48.076 C 331.167 47.681,331.811 46.833,332.111 46.833 C 332.252 46.833,332.621 46.579,332.931 46.269 C 333.870 45.330,337.461 44.763,337.906 45.483 C 337.948 45.551,338.380 45.623,338.866 45.643 C 339.932 45.687,340.371 45.804,340.243 46.012 C 340.190 46.097,340.221 46.167,340.312 46.167 C 340.403 46.167,340.520 46.298,340.572 46.458 C 340.624 46.619,340.969 46.922,341.338 47.133 C 341.708 47.343,341.966 47.587,341.912 47.675 C 341.858 47.762,341.877 47.833,341.955 47.833 C 342.032 47.833,342.107 47.988,342.122 48.177 C 342.188 49.058,342.534 49.667,343.129 49.950 C 343.837 50.286,345.533 50.318,345.913 50.003 C 346.115 49.835,346.217 49.835,346.416 49.999 C 347.271 50.709,349.540 50.083,350.036 49.000 C 350.225 48.587,350.511 48.136,350.672 47.996 C 350.949 47.755,350.945 47.719,350.588 47.305 C 350.326 47.000,350.154 46.478,350.021 45.582 C 349.816 44.205,349.745 44.000,349.472 44.000 C 349.231 44.000,348.506 43.294,348.503 43.055 C 348.487 41.969,347.149 40.667,346.047 40.667 C 345.746 40.667,345.167 40.049,345.167 39.729 C 345.167 39.607,344.816 39.349,344.387 39.153 C 343.958 38.958,343.501 38.691,343.370 38.560 C 342.571 37.761,341.999 37.659,338.332 37.659 C 334.473 37.660,335.051 37.538,332.696 38.851 C 332.267 39.091,331.868 39.260,331.809 39.227 C 331.714 39.175,328.922 41.915,327.584 43.373 C 326.984 44.027,326.500 44.932,326.499 45.405 C 326.498 45.795,326.066 46.509,325.528 47.010 C 325.186 47.328,325.167 47.492,325.167 50.023 L 325.167 52.700 325.745 53.278 C 326.113 53.646,326.358 54.078,326.420 54.470 C 326.715 56.321,326.940 56.708,328.853 58.642 C 329.864 59.664,330.744 60.500,330.808 60.500 C 330.873 60.500,331.054 60.650,331.211 60.833 C 331.368 61.017,331.616 61.167,331.762 61.167 C 331.908 61.167,332.283 61.429,332.594 61.750 C 333.124 62.295,333.229 62.333,334.214 62.333 C 334.793 62.333,335.343 62.410,335.436 62.503 C 335.529 62.596,336.238 62.715,337.011 62.766 C 338.311 62.853,338.766 62.958,339.544 63.356 C 339.741 63.456,340.003 63.421,340.336 63.249 C 340.609 63.107,340.833 63.046,340.833 63.112 C 340.833 63.179,340.923 63.143,341.033 63.033 C 341.309 62.758,345.000 62.753,345.000 63.028 C 345.000 63.135,345.047 63.175,345.104 63.118 C 345.162 63.060,345.433 63.129,345.707 63.271 C 346.065 63.456,346.256 63.478,346.386 63.348 C 346.485 63.248,346.739 63.167,346.950 63.167 C 347.161 63.167,347.333 63.092,347.333 63.000 C 347.333 62.899,348.056 62.833,349.169 62.833 C 350.179 62.833,351.154 62.908,351.336 63.000 C 351.518 63.092,351.825 63.247,352.018 63.346 C 352.297 63.488,352.442 63.461,352.726 63.211 C 353.295 62.711,353.860 62.552,354.583 62.688 C 354.950 62.758,356.094 62.818,357.125 62.824 C 358.257 62.830,359.000 62.899,359.000 63.000 C 359.000 63.092,359.172 63.167,359.383 63.167 C 359.594 63.167,359.848 63.248,359.948 63.348 C 360.078 63.478,360.274 63.453,360.648 63.260 C 360.933 63.112,361.167 63.046,361.167 63.112 C 361.167 63.179,361.257 63.143,361.367 63.033 C 361.648 62.752,370.000 62.746,370.000 63.028 C 370.000 63.135,370.047 63.175,370.104 63.118 C 370.162 63.060,370.420 63.123,370.678 63.256 C 371.009 63.427,371.181 63.445,371.261 63.315 C 371.553 62.843,372.767 62.507,374.197 62.504 C 375.889 62.499,376.196 62.402,377.063 61.599 C 377.418 61.269,377.812 61.000,377.938 61.000 C 378.064 61.000,378.167 60.943,378.167 60.874 C 378.167 60.805,378.373 60.652,378.625 60.535 C 378.877 60.418,379.308 60.030,379.583 59.674 C 379.858 59.318,380.233 58.942,380.417 58.840 C 380.600 58.738,380.832 58.488,380.932 58.285 C 381.598 56.931,381.789 56.653,382.109 56.568 C 382.307 56.515,382.517 56.309,382.575 56.111 C 382.888 55.054,383.147 54.021,383.223 53.527 C 383.270 53.220,383.427 52.839,383.571 52.680 C 383.930 52.284,383.940 50.667,383.583 50.667 C 383.446 50.667,383.333 50.554,383.333 50.417 C 383.333 50.279,383.261 50.167,383.172 50.167 C 383.083 50.167,383.058 50.042,383.117 49.889 C 383.188 49.703,383.159 49.651,383.028 49.732 C 382.810 49.867,382.744 48.979,382.956 48.766 C 383.116 48.606,383.178 47.654,383.050 47.333 C 382.934 47.045,382.893 46.844,382.754 45.897 C 382.692 45.480,382.443 44.955,382.118 44.561 C 381.461 43.764,381.167 43.253,381.167 42.910 C 381.167 42.767,380.903 42.408,380.581 42.113 C 380.259 41.818,379.959 41.391,379.915 41.163 C 379.871 40.936,379.789 40.509,379.733 40.214 C 379.443 38.682,376.333 38.920,376.333 40.474 C 376.333 40.580,376.234 40.667,376.112 40.667 C 375.832 40.667,375.331 41.227,374.844 42.083 C 374.636 42.450,374.361 42.810,374.233 42.883 C 374.105 42.957,374.000 43.111,374.000 43.227 C 374.000 43.475,373.245 44.209,372.704 44.488 C 372.495 44.595,372.363 44.746,372.410 44.822 C 372.457 44.899,372.253 45.052,371.956 45.163 C 370.581 45.678,370.167 45.903,370.077 46.187 C 369.989 46.465,368.661 47.000,368.060 47.000 C 367.770 47.000,367.167 46.332,367.166 46.010 C 367.166 45.867,366.934 45.300,366.650 44.750 C 366.133 43.745,366.032 43.422,365.667 41.587 C 365.558 41.040,365.321 40.383,365.140 40.129 C 364.959 39.875,364.872 39.664,364.947 39.662 C 365.022 39.659,364.961 39.585,364.811 39.498 C 364.638 39.396,364.496 38.995,364.421 38.392 C 364.356 37.872,364.246 37.293,364.177 37.105 C 364.006 36.644,364.525 36.137,365.552 35.759 C 366.478 35.419,366.865 35.051,367.350 34.048 C 367.542 33.652,367.843 33.251,368.019 33.157 C 368.195 33.063,368.500 32.641,368.698 32.220 C 368.910 31.770,369.277 31.325,369.588 31.142 C 369.898 30.959,370.247 30.537,370.430 30.123 C 370.602 29.734,370.884 29.313,371.057 29.186 C 371.313 28.997,371.357 28.803,371.293 28.139 C 371.249 27.680,371.288 27.278,371.383 27.219 C 371.488 27.155,371.499 27.204,371.414 27.349 C 371.314 27.519,371.365 27.510,371.596 27.320 C 372.180 26.839,374.219 26.466,375.079 26.683 C 375.641 26.824,376.024 26.825,376.580 26.685 C 377.115 26.550,377.547 26.547,378.110 26.673 C 378.655 26.795,379.139 26.795,379.702 26.675 C 380.263 26.554,380.749 26.554,381.286 26.675 C 381.819 26.794,382.309 26.795,382.861 26.676 C 383.461 26.548,383.936 26.562,384.748 26.732 C 385.345 26.857,386.057 26.940,386.330 26.917 C 386.948 26.864,387.123 27.072,387.483 28.285 C 387.707 29.038,387.896 29.334,388.343 29.632 C 388.777 29.921,389.005 30.266,389.282 31.049 C 389.482 31.618,389.757 32.106,389.892 32.134 C 390.156 32.189,390.667 33.131,390.667 33.562 C 390.667 33.976,391.463 35.667,391.657 35.667 C 391.754 35.667,391.833 35.850,391.833 36.074 C 391.833 36.638,392.449 37.628,392.886 37.767 C 393.454 37.947,393.648 38.343,393.552 39.127 C 393.446 39.990,393.768 40.561,394.578 40.948 C 395.193 41.241,395.166 41.132,395.432 44.370 C 395.496 45.143,395.630 45.734,395.767 45.848 C 395.893 45.952,395.960 46.096,395.916 46.168 C 395.871 46.240,395.945 46.340,396.079 46.392 C 396.213 46.443,396.367 46.414,396.421 46.326 C 396.582 46.065,397.169 46.134,397.066 46.402 C 397.012 46.543,397.114 46.680,397.321 46.746 C 397.665 46.855,397.806 47.167,397.512 47.167 C 397.416 47.167,397.416 47.374,397.512 47.707 C 397.688 48.323,397.695 51.086,397.526 53.124 C 397.453 54.006,397.472 54.522,397.581 54.563 C 397.851 54.667,397.124 55.139,396.792 55.075 C 396.626 55.043,396.536 55.090,396.590 55.178 C 396.645 55.266,396.754 55.299,396.833 55.250 C 396.912 55.201,397.024 55.237,397.082 55.331 C 397.226 55.565,396.611 55.545,396.375 55.308 C 395.939 54.872,395.377 56.748,395.369 58.667 C 395.365 59.629,395.355 60.502,395.348 60.607 C 395.340 60.712,395.127 60.848,394.875 60.910 C 394.225 61.070,393.667 61.775,393.667 62.435 C 393.667 63.186,393.364 63.790,392.932 63.898 C 392.734 63.948,392.333 64.328,392.040 64.744 C 391.747 65.160,391.443 65.500,391.365 65.500 C 391.287 65.500,391.050 65.872,390.837 66.326 C 390.568 66.901,390.309 67.201,389.986 67.313 C 389.730 67.402,389.406 67.699,389.265 67.972 C 389.124 68.244,388.757 68.623,388.449 68.813 C 388.142 69.003,387.804 69.349,387.698 69.582 C 387.592 69.814,387.299 70.098,387.046 70.211 C 386.549 70.434,386.000 70.919,386.000 71.135 C 386.000 71.607,385.282 72.000,384.418 72.000 C 383.644 72.000,383.473 72.060,383.216 72.420 C 382.499 73.426,382.451 73.453,381.250 73.547 C 380.102 73.637,379.039 74.020,378.790 74.434 C 378.338 75.183,379.049 75.162,354.866 75.155 L 332.106 75.148 331.803 74.799 C 331.636 74.606,331.500 74.357,331.500 74.243 C 331.500 73.908,330.428 73.500,329.548 73.500 C 328.721 73.500,328.000 73.089,328.000 72.617 C 328.000 72.277,327.387 72.005,326.552 71.973 C 325.739 71.942,325.454 71.753,324.780 70.795 C 324.613 70.558,324.300 70.319,324.085 70.265 C 323.870 70.211,323.535 69.910,323.340 69.595 C 323.106 69.215,322.738 68.928,322.248 68.740 C 321.842 68.585,321.466 68.321,321.412 68.153 C 321.359 67.985,321.019 67.612,320.657 67.326 C 320.295 67.039,320.039 66.738,320.089 66.657 C 320.139 66.576,319.919 66.401,319.601 66.268 C 319.143 66.077,318.977 65.879,318.813 65.331 C 318.673 64.863,318.421 64.512,318.041 64.253 C 317.730 64.042,317.317 63.543,317.122 63.143 C 316.396 61.651,314.941 61.684,314.196 63.208 C 313.984 63.644,313.721 64.002,313.613 64.006 C 313.226 64.016,312.718 64.604,312.419 65.387 C 312.252 65.824,311.975 66.258,311.803 66.350 C 311.631 66.441,311.528 66.577,311.573 66.650 C 311.663 66.795,310.669 67.733,310.257 67.891 C 310.116 67.945,310.000 68.075,310.000 68.180 C 310.000 68.442,309.297 69.160,309.036 69.164 C 308.919 69.165,308.780 69.279,308.727 69.416 C 308.675 69.553,308.572 69.628,308.500 69.583 C 308.428 69.539,308.325 69.614,308.273 69.751 C 308.220 69.888,308.006 70.001,307.797 70.002 C 307.041 70.007,306.724 70.194,306.520 70.757 C 306.228 71.564,305.673 71.940,304.721 71.973 C 303.997 71.999,303.850 72.075,303.250 72.738 C 302.592 73.464,302.567 73.475,301.333 73.545 C 300.162 73.611,299.071 74.007,299.037 74.379 C 299.002 74.755,298.819 74.831,297.750 74.913 C 297.108 74.962,294.574 75.034,292.118 75.072 L 287.652 75.141 287.082 74.570 C 286.768 74.257,286.440 74.000,286.353 74.000 C 286.266 74.000,286.167 73.918,286.134 73.818 C 286.099 73.715,285.459 73.598,284.661 73.549 C 283.109 73.453,282.245 73.150,282.115 72.656 C 282.067 72.470,281.887 72.333,281.692 72.333 C 281.506 72.333,281.312 72.267,281.262 72.186 C 281.211 72.104,280.907 71.988,280.585 71.928 C 280.263 71.868,280.000 71.763,280.000 71.694 C 280.000 71.308,279.031 70.474,278.500 70.402 C 277.343 70.247,277.145 70.155,276.986 69.702 C 276.878 69.396,276.585 69.143,276.077 68.919 C 275.537 68.682,275.232 68.408,274.989 67.942 C 274.512 67.027,274.349 66.917,273.468 66.917 C 272.057 66.917,272.000 67.075,272.000 70.969 C 272.000 74.258,271.997 74.288,271.591 74.726 L 271.183 75.167 266.366 75.167 C 260.436 75.167,260.047 75.042,260.691 73.354 C 260.965 72.637,260.895 69.349,260.591 68.625 C 260.352 68.056,260.353 67.944,260.592 67.375 C 260.936 66.556,260.953 63.368,260.618 62.417 C 260.489 62.050,260.420 61.637,260.466 61.500 C 260.511 61.362,260.618 61.063,260.703 60.833 C 260.967 60.125,260.889 56.834,260.591 56.125 C 260.352 55.556,260.353 55.444,260.592 54.875 C 260.952 54.018,260.953 50.864,260.593 49.854 C 260.450 49.453,260.333 48.759,260.333 48.312 C 260.333 47.710,260.270 47.500,260.089 47.500 C 259.718 47.500,259.517 46.983,259.399 45.725 C 259.274 44.394,259.135 44.065,258.633 43.906 C 258.132 43.747,257.833 43.421,257.833 43.035 C 257.833 42.713,257.084 41.833,256.811 41.833 C 256.731 41.833,256.667 41.719,256.667 41.580 C 256.667 41.440,256.479 41.241,256.250 41.136 C 256.021 41.032,255.833 40.889,255.833 40.818 C 255.833 40.748,255.665 40.666,255.458 40.637 C 255.231 40.604,254.985 40.376,254.833 40.055 C 254.534 39.424,253.992 39.078,253.062 38.924 C 252.618 38.851,252.153 38.608,251.749 38.239 L 251.125 37.667 248.470 37.667 C 245.640 37.667,244.799 37.855,244.142 38.637 C 243.963 38.850,243.557 39.002,242.975 39.074 C 241.306 39.280,241.150 39.342,240.798 39.939 C 240.612 40.254,240.251 40.620,239.996 40.752 C 239.741 40.884,239.373 41.250,239.178 41.565 C 238.984 41.879,238.599 42.216,238.324 42.312 C 237.678 42.537,237.364 42.859,237.132 43.537 C 237.030 43.837,236.901 44.121,236.848 44.167 C 235.487 45.329,235.490 56.157,236.851 56.589 C 237.005 56.638,237.171 56.806,237.221 56.964 C 237.477 57.772,238.312 58.894,238.671 58.912 C 238.870 58.922,239.467 59.610,239.571 59.950 C 239.633 60.151,239.832 60.363,240.014 60.421 C 240.373 60.535,240.975 61.103,241.266 61.603 C 241.367 61.775,241.593 61.992,241.769 62.083 C 242.165 62.290,242.838 62.956,242.820 63.125 C 242.813 63.194,242.941 63.325,243.104 63.417 C 243.267 63.508,243.554 63.762,243.742 63.980 C 244.638 65.022,246.408 66.833,246.530 66.833 C 246.697 66.833,247.417 67.537,247.417 67.701 C 247.417 67.765,248.185 68.578,249.125 69.507 C 250.065 70.436,250.833 71.265,250.833 71.348 C 250.833 71.432,250.983 71.500,251.167 71.500 C 251.350 71.500,251.500 71.570,251.500 71.655 C 251.500 71.741,251.645 71.857,251.822 71.913 C 252.485 72.123,254.409 74.177,254.222 74.475 C 253.822 75.115,248.919 75.310,241.417 74.983 C 241.142 74.971,240.579 74.983,240.167 75.010 C 239.258 75.069,238.018 74.740,237.889 74.405 C 237.753 74.051,236.896 73.167,236.689 73.167 C 236.591 73.167,236.427 73.009,236.324 72.816 C 236.058 72.318,235.249 71.500,235.024 71.500 C 234.919 71.500,234.833 71.433,234.833 71.351 C 234.833 71.184,233.920 70.167,233.771 70.167 C 233.718 70.167,233.338 69.829,232.925 69.417 C 232.513 69.004,232.042 68.667,231.878 68.667 C 231.705 68.667,231.484 68.446,231.346 68.135 C 231.057 67.482,229.482 65.882,228.917 65.667 C 228.627 65.556,228.351 65.171,227.995 64.380 C 227.467 63.207,226.559 62.333,225.867 62.333 C 225.575 62.333,224.874 63.371,224.956 63.681 C 224.970 63.734,224.691 63.959,224.336 64.181 C 223.760 64.540,223.195 65.630,223.298 66.183 C 223.308 66.237,223.017 66.612,222.651 67.016 C 222.286 67.420,221.944 67.916,221.893 68.119 C 221.842 68.322,221.667 68.530,221.504 68.582 C 221.083 68.716,220.442 69.338,220.173 69.875 C 220.047 70.127,219.809 70.333,219.645 70.333 C 219.480 70.333,219.062 70.621,218.715 70.972 C 218.161 71.532,217.990 71.609,217.333 71.597 C 216.569 71.583,215.833 72.057,215.833 72.563 C 215.833 73.075,215.089 73.464,213.917 73.564 C 212.357 73.697,212.333 73.701,212.333 73.861 C 212.333 73.938,212.223 74.000,212.089 74.000 C 211.955 74.000,211.765 74.149,211.668 74.331 C 211.570 74.514,211.305 74.709,211.079 74.766 C 210.852 74.823,210.667 74.918,210.667 74.976 C 210.667 75.035,208.351 75.100,205.521 75.121 L 200.375 75.159 199.987 74.427 C 199.582 73.664,199.247 73.500,198.092 73.500 C 197.568 73.500,197.386 73.371,196.628 72.466 C 196.321 72.100,196.094 72.009,195.417 71.980 C 194.352 71.935,194.171 71.836,193.679 71.030 C 193.355 70.497,193.151 70.347,192.647 70.266 C 192.268 70.206,191.915 70.019,191.759 69.796 L 191.500 69.426 191.245 69.790 C 191.097 70.002,190.732 70.197,190.370 70.258 C 189.490 70.407,188.484 70.894,188.013 71.400 C 187.790 71.638,187.446 71.833,187.247 71.833 C 186.672 71.833,185.701 72.870,185.806 73.372 C 185.848 73.572,185.069 73.703,184.387 73.611 C 183.693 73.517,182.667 73.895,182.667 74.243 C 182.667 74.561,182.045 75.208,181.926 75.015 C 181.862 74.911,181.328 74.883,180.536 74.943 C 174.432 75.400,169.000 75.071,169.000 74.243 C 169.000 73.929,167.948 73.500,167.177 73.500 C 166.469 73.500,165.667 73.111,165.667 72.768 C 165.667 72.494,165.082 72.027,164.584 71.902 C 164.352 71.844,163.946 71.598,163.682 71.356 C 163.126 70.848,162.780 70.609,162.083 70.255 C 161.808 70.115,161.445 69.793,161.276 69.540 C 161.106 69.287,160.685 68.877,160.340 68.629 C 159.798 68.240,159.685 68.042,159.517 67.183 C 159.383 66.506,159.171 66.028,158.853 65.687 C 158.595 65.412,158.258 64.994,158.105 64.759 C 157.951 64.524,157.540 64.152,157.192 63.933 C 156.601 63.560,156.545 63.453,156.343 62.308 C 156.089 60.869,155.957 60.572,155.301 59.957 C 154.823 59.510,154.811 59.457,154.843 58.040 C 154.907 55.217,154.382 52.000,153.857 52.000 C 153.260 52.000,153.167 50.259,153.259 40.833 C 153.369 29.632,153.368 29.129,153.235 28.105 C 153.055 26.713,154.082 26.217,156.221 26.661 C 156.855 26.792,157.341 26.796,157.891 26.672 C 158.430 26.552,158.904 26.552,159.447 26.673 C 159.990 26.795,160.473 26.795,161.039 26.674 C 161.617 26.550,162.063 26.553,162.586 26.685 C 163.136 26.823,163.530 26.820,164.153 26.670 C 164.916 26.487,165.041 26.502,165.659 26.849 L 166.333 27.228 166.354 28.864 C 166.377 30.661,166.364 30.556,166.639 31.219 C 166.878 31.797,166.892 32.611,166.664 32.752 C 166.571 32.809,166.535 32.921,166.583 33.000 C 166.632 33.079,166.604 33.186,166.522 33.237 C 166.327 33.357,166.271 37.167,166.464 37.167 C 166.639 37.167,166.692 37.438,166.692 38.333 C 166.692 39.190,166.640 39.500,166.495 39.500 C 166.431 39.500,166.397 39.669,166.418 39.875 C 166.440 40.081,166.473 40.250,166.491 40.250 C 166.532 40.250,166.658 40.737,166.781 41.365 C 166.829 41.611,166.754 42.042,166.614 42.323 C 166.309 42.933,166.247 46.343,166.537 46.523 C 166.832 46.705,166.763 48.626,166.449 48.940 C 166.287 49.102,166.304 49.667,166.472 49.667 C 166.639 49.667,166.692 49.947,166.692 50.833 C 166.692 51.682,166.640 52.000,166.500 52.000 C 166.329 52.000,166.359 52.558,166.543 52.792 C 166.634 52.906,166.658 53.000,166.598 53.000 C 166.538 53.000,166.579 53.169,166.689 53.375 C 166.800 53.581,166.904 54.050,166.921 54.417 C 167.015 56.436,167.682 58.722,168.239 58.935 C 168.362 58.983,168.589 59.351,168.743 59.754 C 168.926 60.234,169.217 60.607,169.586 60.835 C 169.896 61.027,170.299 61.423,170.482 61.717 C 170.925 62.427,171.268 62.614,172.390 62.754 C 172.909 62.819,173.333 62.923,173.333 62.986 C 173.333 63.550,176.898 63.694,178.037 63.176 C 178.429 62.998,178.956 62.809,179.207 62.756 C 179.894 62.613,182.397 60.076,182.666 59.250 C 182.954 58.370,183.291 57.869,183.682 57.745 C 184.199 57.581,184.319 57.147,184.410 55.099 C 184.485 53.411,184.787 51.847,185.153 51.250 C 185.324 50.971,185.253 50.606,184.931 50.122 C 184.528 49.516,184.544 48.973,184.983 48.358 C 185.363 47.823,185.377 47.561,185.042 47.201 C 184.561 46.683,184.582 45.608,185.084 45.107 C 185.402 44.788,185.402 44.378,185.084 44.060 C 184.582 43.558,184.561 42.484,185.042 41.966 C 185.377 41.606,185.363 41.344,184.983 40.809 C 184.545 40.194,184.528 39.651,184.930 39.044 C 185.314 38.465,185.314 38.201,184.930 37.622 C 184.529 37.017,184.544 36.473,184.979 35.863 C 185.344 35.351,185.546 28.935,185.208 28.597 C 185.140 28.528,185.077 28.422,185.069 28.361 C 185.061 28.300,184.998 28.123,184.930 27.968 C 184.759 27.582,184.866 27.144,185.167 26.997 C 186.201 26.489,187.786 26.363,189.155 26.678 C 189.661 26.795,190.148 26.794,190.705 26.674 C 191.285 26.550,191.730 26.553,192.259 26.686 C 192.814 26.826,193.196 26.824,193.779 26.677 C 194.685 26.449,195.978 26.678,196.384 27.138 C 196.931 27.759,197.157 32.418,196.683 33.303 C 196.533 33.583,196.536 33.753,196.694 34.042 C 196.955 34.518,196.966 38.959,196.708 39.421 C 196.581 39.647,196.580 39.838,196.704 40.070 C 196.970 40.566,196.968 45.326,196.702 45.792 C 196.532 46.091,196.530 46.243,196.694 46.542 C 196.946 47.003,196.968 51.456,196.719 51.900 C 196.604 52.107,196.617 52.481,196.761 53.103 C 196.877 53.600,196.978 54.043,196.986 54.087 C 196.994 54.131,197.000 54.531,197.000 54.977 C 197.000 55.683,197.075 55.859,197.582 56.352 C 197.901 56.662,198.164 57.043,198.165 57.198 C 198.166 57.354,198.242 57.527,198.333 57.583 C 198.425 57.640,198.500 57.874,198.500 58.104 C 198.500 58.624,198.763 59.149,199.241 59.583 C 199.442 59.767,199.749 60.161,199.923 60.459 C 200.097 60.757,200.369 61.042,200.529 61.092 C 200.688 61.143,200.993 61.387,201.205 61.634 C 201.838 62.370,202.086 62.505,203.108 62.672 C 204.692 62.931,204.827 62.970,205.098 63.241 C 205.527 63.670,208.000 63.453,208.000 62.986 C 208.000 62.923,208.409 62.821,208.908 62.758 C 210.042 62.617,210.960 62.175,211.498 61.512 C 211.726 61.230,212.012 61.000,212.133 61.000 C 212.254 61.000,212.307 60.925,212.250 60.833 C 212.193 60.742,212.256 60.667,212.389 60.667 C 212.522 60.667,212.680 60.470,212.740 60.230 C 212.800 59.990,212.889 59.834,212.938 59.882 C 213.125 60.069,213.971 58.956,214.079 58.381 C 214.250 57.470,214.677 56.500,214.907 56.500 C 215.283 56.500,215.476 55.762,215.582 53.917 C 215.639 52.908,215.769 51.802,215.870 51.458 C 216.005 50.995,216.002 50.664,215.856 50.177 C 215.713 49.700,215.661 46.472,215.664 38.388 L 215.669 27.255 216.056 26.868 C 216.417 26.507,216.496 26.494,217.215 26.675 C 217.805 26.824,218.181 26.823,218.807 26.673 C 219.424 26.525,219.800 26.523,220.329 26.665 C 220.836 26.802,221.259 26.805,221.854 26.678 C 222.429 26.555,222.912 26.554,223.452 26.675 C 223.994 26.796,224.476 26.795,225.058 26.670 C 226.418 26.378,227.604 28.330,226.647 29.286 C 226.415 29.518,226.402 31.337,226.629 31.766 C 226.726 31.951,226.746 32.411,226.676 32.866 C 226.541 33.741,226.956 34.672,227.475 34.661 C 228.673 34.635,230.833 33.832,230.833 33.412 C 230.833 33.312,230.983 33.069,231.167 32.872 C 231.350 32.675,231.500 32.404,231.500 32.269 C 231.500 32.036,232.856 31.000,233.160 31.000 C 233.239 31.000,233.492 30.776,233.722 30.503 C 233.982 30.194,234.429 29.929,234.903 29.802 C 235.323 29.689,235.667 29.538,235.667 29.465 C 235.667 29.393,235.770 29.333,235.897 29.333 C 236.024 29.333,236.167 29.184,236.215 29.001 C 236.263 28.818,236.421 28.630,236.568 28.584 C 236.714 28.538,236.965 28.451,237.125 28.391 C 237.462 28.266,237.656 28.226,238.617 28.085 C 239.083 28.016,239.502 27.805,239.867 27.455 C 240.828 26.534,240.978 26.517,247.817 26.574 C 255.817 26.640,256.167 26.675,256.167 27.418 C 256.167 27.667,257.153 28.167,257.645 28.167 C 258.084 28.167,259.080 28.723,259.553 29.232 C 259.766 29.462,260.227 29.680,260.667 29.760 C 261.079 29.836,261.473 29.911,261.542 29.928 C 261.610 29.945,261.743 29.968,261.837 29.979 C 261.931 29.991,262.091 30.184,262.193 30.409 C 262.353 30.759,263.534 31.518,263.610 31.319 C 263.660 31.189,264.333 32.135,264.333 32.336 C 264.333 32.690,266.086 34.275,266.594 34.381 C 266.863 34.437,267.296 34.683,267.555 34.928 C 268.174 35.510,268.297 35.368,268.752 33.558 C 269.053 32.357,269.086 31.985,268.938 31.427 C 268.081 28.184,269.399 26.102,271.947 26.673 C 272.490 26.795,272.973 26.795,273.539 26.674 C 274.117 26.550,274.563 26.553,275.086 26.685 C 275.628 26.821,276.030 26.820,276.619 26.681 C 277.434 26.487,278.466 26.652,279.750 27.181 C 280.025 27.294,280.287 27.381,280.333 27.374 C 280.379 27.367,280.417 32.298,280.417 38.331 C 280.417 44.830,280.355 49.264,280.266 49.208 C 280.183 49.157,280.169 49.202,280.234 49.308 C 280.299 49.413,280.443 49.500,280.553 49.500 C 280.782 49.500,281.236 50.153,281.101 50.288 C 281.052 50.337,281.077 50.500,281.157 50.649 C 281.350 51.010,280.916 52.071,280.644 51.903 C 280.527 51.831,280.493 51.854,280.559 51.960 C 280.619 52.058,280.575 52.177,280.459 52.223 C 280.316 52.282,280.369 52.405,280.629 52.617 C 281.128 53.022,281.301 53.724,281.144 54.713 C 281.008 55.578,281.088 55.997,281.393 56.005 C 281.719 56.014,282.416 56.729,282.650 57.294 C 282.773 57.591,282.934 57.833,283.008 57.833 C 283.082 57.833,283.166 57.943,283.196 58.076 C 283.274 58.428,285.499 60.667,285.771 60.667 C 285.897 60.667,286.000 60.742,286.000 60.833 C 286.000 60.925,286.103 61.000,286.229 61.000 C 286.355 61.000,286.749 61.269,287.104 61.599 C 287.904 62.340,288.109 62.420,289.667 62.603 C 293.173 63.015,296.903 62.664,297.788 61.839 C 297.977 61.664,298.177 61.566,298.232 61.621 C 298.288 61.677,298.333 61.642,298.333 61.543 C 298.333 61.445,298.475 61.402,298.648 61.447 C 298.821 61.492,299.013 61.448,299.074 61.348 C 299.136 61.248,299.333 61.167,299.511 61.167 C 299.690 61.167,299.965 61.017,300.122 60.833 C 300.279 60.650,300.466 60.500,300.537 60.500 C 300.782 60.500,302.918 58.153,303.269 57.497 C 303.463 57.135,303.849 56.607,304.125 56.324 C 304.600 55.838,304.635 55.710,304.749 54.030 C 304.865 52.327,305.202 51.000,305.518 51.000 C 305.803 51.000,305.678 49.308,305.354 48.770 C 305.006 48.193,304.897 47.674,304.736 45.833 C 304.621 44.530,304.449 44.000,304.138 44.000 C 303.888 44.000,303.167 43.202,303.167 42.925 C 303.167 42.802,302.916 42.481,302.609 42.212 C 302.303 41.942,301.911 41.485,301.740 41.194 C 301.568 40.904,301.368 40.667,301.294 40.667 C 301.045 40.667,298.732 38.255,298.336 37.583 C 298.121 37.217,297.740 36.709,297.489 36.456 C 297.239 36.202,296.983 35.790,296.921 35.540 C 296.776 34.965,296.533 34.671,296.049 34.487 C 295.839 34.407,295.529 34.116,295.362 33.840 C 295.194 33.564,294.750 33.116,294.376 32.845 C 294.001 32.574,293.647 32.201,293.589 32.017 C 293.531 31.834,293.230 31.527,292.920 31.335 C 292.582 31.127,292.317 30.805,292.257 30.530 C 292.201 30.279,291.896 29.856,291.578 29.591 C 291.260 29.326,291.000 29.013,291.000 28.896 C 291.000 28.779,290.634 28.515,290.187 28.310 C 288.611 27.587,288.954 26.315,290.629 26.674 C 291.194 26.795,291.677 26.795,292.220 26.673 C 292.764 26.551,293.236 26.551,293.780 26.673 C 294.322 26.795,294.807 26.795,295.369 26.675 C 295.930 26.554,296.416 26.554,296.952 26.675 C 297.489 26.795,297.975 26.795,298.539 26.674 C 299.118 26.550,299.563 26.553,300.092 26.686 C 300.639 26.824,301.028 26.824,301.574 26.686 C 303.296 26.253,305.167 26.847,305.167 27.828 C 305.167 27.910,305.335 28.031,305.542 28.096 C 305.977 28.233,306.500 28.785,306.500 29.105 C 306.500 29.227,306.800 29.480,307.167 29.667 C 307.533 29.854,307.833 30.113,307.833 30.242 C 307.833 30.372,308.172 30.755,308.586 31.094 C 308.999 31.433,309.380 31.879,309.432 32.084 C 309.483 32.289,309.724 32.561,309.966 32.687 C 310.540 32.986,311.000 33.444,311.000 33.717 C 311.000 33.837,311.267 34.193,311.594 34.509 C 311.921 34.825,312.298 35.314,312.433 35.596 C 312.567 35.877,312.929 36.376,313.238 36.703 C 313.547 37.031,313.855 37.475,313.922 37.691 C 314.459 39.419,316.967 39.604,317.257 37.937 C 317.299 37.697,317.367 37.305,317.409 37.066 C 317.478 36.667,317.909 36.185,318.207 36.172 C 318.276 36.169,318.495 35.819,318.695 35.394 C 318.914 34.927,319.275 34.493,319.605 34.298 C 319.906 34.121,320.203 33.816,320.265 33.621 C 320.410 33.163,320.671 32.907,321.150 32.755 C 321.573 32.621,323.216 31.168,323.833 30.381 C 323.971 30.206,324.330 29.963,324.632 29.841 C 324.934 29.720,325.416 29.401,325.703 29.133 C 326.381 28.500,326.971 28.202,327.816 28.067 C 328.192 28.007,328.500 27.897,328.500 27.823 C 328.500 27.749,328.650 27.642,328.833 27.583 C 329.017 27.525,329.167 27.372,329.167 27.242 C 329.167 27.112,329.354 26.959,329.583 26.902 C 329.813 26.844,330.000 26.741,330.000 26.671 C 330.000 26.602,330.391 26.617,330.869 26.703 C 331.973 26.904,333.801 26.657,334.588 26.201 C 335.082 25.915,338.479 25.952,339.000 26.250  M -25 0 L -5 0 L -5 20 L -25 20 Z M 405 0 L 425 0 L 425 20 L 405 20 Z" stroke="none" fill="#dce4e4" fill-rule="evenodd" transform="translate(490,0)"></path></g></svg>